<svg width="315" height="252" viewBox="0 0 315 252" fill="none" xmlns="http://www.w3.org/2000/svg">
<g opacity="0.3">
<rect width="45.0107" height="45.0107" transform="matrix(1 -8.74228e-08 -8.74228e-08 -1 0 206.497)" fill="#D9D9D9"/>
<rect width="45.0107" height="45.0107" transform="matrix(1 -8.74228e-08 -8.74228e-08 -1 45.0107 206.497)" fill="#D9D9D9" fill-opacity="0.5"/>
<rect width="45.0107" height="45.0107" transform="matrix(1 -8.74228e-08 -8.74228e-08 -1 45.0107 161.486)" fill="#D9D9D9" fill-opacity="0.9"/>
<rect width="45.0107" height="45.0107" transform="matrix(1 -8.74228e-08 -8.74228e-08 -1 90.0215 206.497)" fill="#D9D9D9" fill-opacity="0.9"/>
<rect width="45.0107" height="45.0107" transform="matrix(1 -8.74228e-08 -8.74228e-08 -1 135.032 206.497)" fill="#D9D9D9" fill-opacity="0.5"/>
<rect width="45.0107" height="45.0107" transform="matrix(1 -8.74228e-08 -8.74228e-08 -1 135.032 251.507)" fill="#D9D9D9" fill-opacity="0.9"/>
<rect width="45.0107" height="45.0107" transform="matrix(1 -8.74228e-08 -8.74228e-08 -1 0 119.011)" fill="#D9D9D9" fill-opacity="0.9"/>
</g>
<path d="M193.219 201.858C191.262 199.118 188.613 197.113 185.283 196.363C182.379 195.708 179.393 195.82 176.441 195.843L139.114 196.13C135.917 196.155 132.852 198.925 133.001 202.244C133.148 205.535 135.687 208.384 139.114 208.357C150.048 208.273 160.982 208.189 171.916 208.104C174.494 208.084 177.073 208.038 179.651 208.046C180.23 208.048 180.807 208.079 181.385 208.085C181.525 208.087 181.626 208.086 181.698 208.083C181.716 208.088 181.731 208.093 181.754 208.1C182.056 208.182 182.365 208.239 182.669 208.318C182.562 208.321 182.866 208.51 183.018 208.575C183.039 208.616 183.083 208.689 183.158 208.802C183.262 208.997 183.569 209.588 183.582 209.57C184.044 210.739 184.426 211.938 184.723 213.159C185.434 215.851 185.59 216.414 185.692 218.94C185.821 222.132 188.411 225.206 191.805 225.054C195.007 224.91 198.057 222.363 197.919 218.94C197.685 213.173 196.673 206.695 193.219 201.858Z" fill="#004D61"/>
<path d="M141.308 215.654C140.607 211.405 139.919 207.154 139.205 202.908C138.479 198.6 136.998 194.655 133.646 191.828C132.75 191.073 131.822 190.368 130.889 189.664C130.561 189.417 130.234 189.17 129.91 188.917C129.89 188.902 129.878 188.893 129.861 188.88C129.825 188.849 129.783 188.812 129.725 188.764C128.328 187.581 126.978 186.346 125.692 185.034C124.55 183.868 123.458 182.652 122.416 181.387C122.155 181.07 121.898 180.752 121.645 180.43C121.601 180.375 121.366 180.071 121.211 179.873C121.067 179.674 120.804 179.316 120.759 179.253C120.463 178.834 120.172 178.411 119.886 177.984C117.939 175.067 116.253 171.983 114.847 168.77C114.708 168.451 114.572 168.131 114.439 167.808C114.404 167.71 114.357 167.583 114.296 167.415C114.013 166.636 113.73 165.858 113.471 165.07C112.921 163.396 112.448 161.698 112.052 159.975C111.857 159.124 111.681 158.269 111.524 157.409C111.443 156.967 111.368 156.524 111.297 156.08C111.286 156.007 111.217 155.528 111.177 155.257C111.147 154.985 111.091 154.504 111.084 154.429C111.039 153.982 110.999 153.534 110.964 153.086C110.886 152.077 110.833 151.067 110.806 150.055C110.759 148.256 110.791 146.457 110.903 144.659C110.966 143.648 111.056 142.641 111.167 141.635C111.174 141.573 111.179 141.524 111.184 141.479C111.191 141.434 111.199 141.383 111.208 141.32C111.29 140.764 111.377 140.209 111.474 139.655C111.84 137.554 112.317 135.473 112.902 133.422C113.18 132.452 113.48 131.49 113.805 130.535C113.95 130.112 114.099 129.69 114.253 129.269C114.243 129.296 114.705 128.117 114.711 128.077C116.543 123.749 119.54 119.802 119.544 114.885C119.547 111.556 116.73 108.367 113.431 108.521C111.786 108.583 110.229 109.281 109.088 110.468C107.948 111.655 107.313 113.239 107.317 114.885C107.317 114.96 107.317 115.024 107.317 115.086C107.286 115.189 107.26 115.276 107.237 115.352C106.88 116.129 106.442 116.866 106.05 117.624C104.976 119.696 104.059 121.836 103.189 124.008C101.763 127.544 100.672 131.206 99.9299 134.946C98.3161 143.14 98.1909 151.558 99.5601 159.797C101.93 174.245 109.747 188.075 120.614 197.371C121.557 198.178 122.523 198.957 123.498 199.721C123.902 200.037 124.309 200.347 124.718 200.656C124.911 200.801 125.712 201.433 125.36 201.127C126.117 201.773 126.436 202.099 126.63 202.575C126.659 202.685 126.697 202.834 126.749 203.037C126.886 203.574 127.017 204.11 127.125 204.655C128.071 209.412 128.728 214.249 129.518 219.038C130.061 222.328 134.112 224.469 137.038 223.483C140.445 222.335 141.89 219.179 141.308 215.654Z" fill="#004D61"/>
<path d="M193.838 227.993C191.27 228 188.805 226.988 186.983 225.179C185.16 223.371 184.13 220.913 184.117 218.346V211.372C176.816 212.189 151.815 212 144.648 210.849V218.067C144.629 220.632 143.596 223.086 141.775 224.893C139.955 226.7 137.493 227.714 134.928 227.714C132.362 227.714 129.901 226.7 128.08 224.893C126.259 223.086 125.227 220.632 125.207 218.067V203.895C115.501 198.502 107.409 190.617 101.767 181.054C96.1251 171.49 93.1374 160.594 93.1123 149.49C93.1123 130.451 101.741 112.69 116.786 100.761C126.568 92.9792 138.453 88.2991 150.915 87.322C152.606 87.1894 154.308 87.1222 155.973 87.1222C161.839 87.1222 188.305 88.0284 194.945 89.9388L210.086 74.9145C210.309 74.6907 210.593 74.5382 210.903 74.4765C211.212 74.4147 211.533 74.4467 211.825 74.5681C212.118 74.6849 212.37 74.8878 212.546 75.1501C212.722 75.4124 212.815 75.7219 212.812 76.0379V78.4266L215.76 75.5067C215.983 75.2826 216.267 75.1299 216.576 75.0681C216.885 75.0062 217.206 75.0381 217.498 75.1597C217.791 75.2765 218.043 75.4794 218.22 75.7418C218.396 76.0042 218.489 76.3138 218.486 76.63V103.324C226.084 110.174 231.875 118.792 235.345 128.414C238.816 138.037 239.859 148.367 238.383 158.489C236.906 168.611 232.956 178.213 226.881 186.443C220.807 194.674 212.795 201.278 203.558 205.672V218.346C203.545 220.913 202.515 223.371 200.693 225.179C198.87 226.988 196.405 228 193.838 227.993V227.993ZM184.882 210.505V218.346C184.901 220.708 185.853 222.968 187.53 224.631C189.208 226.295 191.475 227.229 193.838 227.229C196.2 227.229 198.467 226.295 200.145 224.631C201.822 222.968 202.774 220.708 202.794 218.346V205.189L203.012 205.086C213.377 200.167 222.176 192.473 228.432 182.856C236.405 170.584 239.72 155.863 237.779 141.358C235.837 126.853 228.768 113.523 217.849 103.779L217.722 103.665V76.63C217.725 76.4657 217.677 76.3046 217.585 76.1682C217.494 76.0319 217.362 75.927 217.209 75.8675C217.057 75.8024 216.889 75.7848 216.726 75.8171C216.564 75.8494 216.415 75.93 216.299 76.0483L212.048 80.2591V76.0378C212.051 75.8736 212.003 75.7124 211.911 75.5761C211.82 75.4398 211.688 75.3348 211.535 75.2753C211.383 75.2104 211.214 75.193 211.051 75.2255C210.889 75.258 210.74 75.3388 210.624 75.4574L195.158 90.8034L194.939 90.7345C188.766 88.8024 161.883 87.8864 155.973 87.8864C154.328 87.8864 152.646 87.9528 150.975 88.084C138.664 89.0491 126.924 93.6723 117.261 101.36C102.4 113.143 93.8764 130.685 93.8764 149.49C93.9018 160.496 96.8735 171.294 102.483 180.762C108.092 190.231 116.135 198.025 125.775 203.335L125.972 203.445V218.067C125.991 220.429 126.944 222.688 128.621 224.352C130.299 226.015 132.565 226.949 134.928 226.949C137.29 226.949 139.557 226.015 141.235 224.352C142.912 222.688 143.864 220.429 143.884 218.067V209.934L144.337 210.019C150.777 211.231 177.896 211.422 184.45 210.562L184.882 210.505Z" fill="#3F3D56"/>
<path d="M142.039 45.5131L99.7264 58.2289C98.3806 58.635 97.251 59.5587 96.5858 60.7971C95.9206 62.0354 95.7742 63.4872 96.1788 64.8335C96.5833 66.1798 97.5057 67.3104 98.7433 67.977C99.981 68.6436 101.433 68.7916 102.779 68.3886L139.807 57.2584L140.583 57.0253C140.74 53.0282 141.824 49.1223 143.75 45.6163C143.509 45.5075 143.25 45.4403 142.986 45.4176C142.667 45.3867 142.345 45.4192 142.039 45.5131Z" fill="#E6E6E6"/>
<path d="M102.047 71.0996C101.486 71.0982 100.939 70.9203 100.484 70.5912C100.028 70.262 99.6883 69.7981 99.5112 69.2651L96.8653 61.281C96.7548 60.9476 96.711 60.5957 96.7366 60.2454C96.7621 59.895 96.8563 59.5532 97.014 59.2393C97.1716 58.9254 97.3896 58.6456 97.6554 58.416C97.9211 58.1863 98.2296 58.0113 98.563 57.9008L133.001 46.4879C133.334 46.3774 133.686 46.3336 134.036 46.3591C134.387 46.3846 134.729 46.4788 135.042 46.6364C135.356 46.794 135.636 47.0119 135.866 47.2776C136.095 47.5433 136.271 47.8517 136.381 48.1851L139.027 56.1691C139.247 56.8258 139.203 57.5424 138.904 58.1671C138.605 58.7918 138.074 59.2756 137.425 59.5159C137.393 59.5279 137.361 59.5391 137.328 59.5497L102.891 70.9623C102.619 71.053 102.334 71.0993 102.047 71.0996Z" fill="#2F2E41"/>
<path d="M166.542 31.334C159.591 31.3367 152.914 34.0438 147.925 38.8824C142.935 43.721 140.024 50.3113 139.807 57.2585C139.799 57.5298 139.796 57.8049 139.796 58.08C139.796 63.3698 141.364 68.5409 144.303 72.9392C147.242 77.3376 151.419 80.7657 156.306 82.79C161.194 84.8144 166.571 85.344 171.76 84.312C176.948 83.28 181.713 80.7327 185.454 76.9922C189.194 73.2517 191.742 68.4861 192.774 63.2978C193.806 58.1096 193.276 52.7319 191.252 47.8447C189.227 42.9575 185.799 38.7804 181.401 35.8415C177.003 32.9026 171.831 31.334 166.542 31.334V31.334ZM166.542 84.0618C159.653 84.0546 153.049 81.3149 148.178 76.444C143.307 71.573 140.567 64.9686 140.56 58.08C140.56 57.7246 140.567 57.3731 140.583 57.0254C140.79 51.936 142.488 47.0196 145.467 42.8876C148.445 38.7557 152.573 35.5905 157.336 33.7855C162.099 31.9806 167.288 31.6156 172.257 32.7359C177.226 33.8562 181.756 36.4124 185.283 40.0866C188.811 43.7608 191.181 48.391 192.099 53.4014C193.016 58.4117 192.44 63.5812 190.443 68.2671C188.446 72.9529 185.116 76.9483 180.866 79.7566C176.617 82.5648 171.635 84.0619 166.542 84.0618V84.0618Z" fill="#3F3D56"/>
<path d="M189.085 58.0798C189.085 64.0586 186.71 69.7925 182.482 74.0202C178.254 78.2478 172.52 80.6229 166.542 80.6229C160.563 80.6229 154.829 78.2478 150.601 74.0202C146.374 69.7925 143.999 64.0586 143.999 58.0798C143.999 57.3653 144.033 56.6623 144.098 55.9669C144.641 50.1967 147.386 44.8575 151.762 41.0578C156.138 37.258 161.81 35.2898 167.599 35.5617C173.388 35.8336 178.851 38.3248 182.852 42.518C186.852 46.7112 189.085 52.2842 189.085 58.0798V58.0798Z" fill="#E6E6E6"/>
<path d="M173.255 59.5777C172.708 58.8592 171.989 58.2902 171.165 57.9232C170.148 57.4946 169.097 57.1495 168.024 56.8916V50.7553C169.674 51.004 171.221 51.7095 172.491 52.7918L173.736 50.1363C173.02 49.4981 172.197 48.9899 171.306 48.6347C170.318 48.2347 169.281 47.9687 168.223 47.8438V44.7336H165.338V47.8744C164.224 47.9995 163.15 48.3603 162.186 48.9328C161.315 49.448 160.582 50.1664 160.05 51.0266C159.542 51.866 159.278 52.8308 159.29 53.812C159.24 54.8753 159.548 55.9246 160.165 56.7923C160.732 57.5435 161.482 58.1379 162.342 58.5193C163.376 58.9606 164.444 59.3146 165.537 59.5777V65.458C163.59 65.3111 161.735 64.571 160.222 63.3374L158.976 65.9967C159.822 66.6962 160.784 67.2419 161.819 67.6091C162.953 68.0148 164.137 68.2616 165.338 68.3427V71.4261H168.223V68.2854C169.825 68.1103 171.328 67.4213 172.506 66.3215C173.025 65.8238 173.435 65.2239 173.71 64.5596C173.985 63.8953 174.118 63.1812 174.103 62.4624C174.151 61.433 173.852 60.4173 173.255 59.5777V59.5777ZM165.537 56.2421C164.834 56.029 164.181 55.6783 163.615 55.2104C163.39 55.0109 163.213 54.7642 163.096 54.4881C162.978 54.212 162.923 53.9132 162.935 53.6133C162.914 52.9328 163.164 52.2718 163.63 51.7755C164.147 51.2548 164.813 50.9088 165.537 50.7859V56.2421ZM169.835 64.3728C169.348 64.8727 168.713 65.2035 168.024 65.3166V60.2578C168.683 60.4345 169.299 60.7425 169.835 61.1633C170.039 61.337 170.2 61.5543 170.308 61.7991C170.416 62.0438 170.467 62.3097 170.458 62.577C170.484 63.2328 170.262 63.8743 169.835 64.3728V64.3728Z" fill="#004D61"/>
<path d="M103.275 103.458C102.685 103.457 102.111 103.261 101.643 102.901C101.175 102.54 100.839 102.036 100.687 101.465L99.2463 96.0126C99.066 95.3273 99.1648 94.5985 99.5212 93.986C99.8776 93.3734 100.462 92.9273 101.147 92.7453L146.593 80.7365C147.279 80.5576 148.007 80.6575 148.62 81.0145C149.232 81.3714 149.678 81.9564 149.86 82.6413L151.08 87.2607L150.852 87.2784C139.196 88.1847 128.044 92.4105 118.715 99.4559L118.649 99.488L103.954 103.37C103.733 103.428 103.504 103.458 103.275 103.458V103.458Z" fill="#2F2E41"/>
<path d="M95.7487 130.39C90.4177 129.602 85.3192 127.674 80.8007 124.738C78.5622 123.284 76.4898 121.589 74.6209 119.683C72.7762 117.802 71.0115 115.663 70.0978 113.158C69.2187 110.839 69.2641 108.272 70.2244 105.986C71.1716 103.714 72.9811 101.911 75.256 100.971C77.5445 100.059 80.3095 99.9609 82.5368 100.96C83.5981 101.426 84.5165 102.165 85.1978 103.102C85.5144 103.535 85.7489 104.021 85.8894 104.538C86.0199 105.007 86.0318 105.5 85.924 105.975C85.7934 106.448 85.563 106.888 85.2485 107.265C84.9339 107.642 84.5423 107.948 84.0999 108.161C83.1264 108.661 82.0716 108.982 80.9851 109.111C79.8923 109.26 78.3225 109.396 77.444 108.519C77.2631 108.345 77.1209 108.135 77.0265 107.903C76.9605 107.725 76.9379 107.534 76.9606 107.346C76.9478 107.429 77.0136 107.166 77.0099 107.176C76.996 107.215 76.9358 107.31 77.0213 107.164C77.0481 107.116 77.0778 107.07 77.1104 107.025C77.0814 107.063 77.0176 107.126 77.1315 107.018C77.2256 106.915 77.3466 106.84 77.4808 106.802C77.5337 106.787 77.5874 106.775 77.6404 106.76C77.7752 106.723 77.506 106.762 77.6439 106.758C77.6971 106.756 77.751 106.757 77.804 106.755C77.9393 106.749 77.6706 106.718 77.8002 106.751C77.8506 106.763 77.9004 106.776 77.95 106.791C78.0578 106.825 77.8737 106.712 77.9467 106.797C78.0323 106.896 77.8568 106.701 77.9541 106.796C78.0025 106.844 78.0482 106.894 78.0908 106.947C78.2595 107.114 78.487 107.207 78.7241 107.207C78.9612 107.207 79.1887 107.114 79.3574 106.947C79.5204 106.777 79.6113 106.55 79.6113 106.314C79.6113 106.078 79.5204 105.851 79.3574 105.681C78.4742 104.586 76.7298 104.856 75.8364 105.782C74.697 106.962 75.1482 108.832 76.2565 109.861C77.5111 111.027 79.2881 111.108 80.902 110.913C82.266 110.782 83.5951 110.406 84.8257 109.804C86.0484 109.203 87.0048 108.17 87.5095 106.904C87.7374 106.229 87.8192 105.513 87.7496 104.804C87.68 104.094 87.4606 103.408 87.1058 102.79C85.6809 100.111 82.7304 98.7375 79.814 98.4996C78.3125 98.382 76.8025 98.5633 75.3716 99.0331C73.9406 99.5029 72.617 100.252 71.4774 101.236C69.2807 103.214 67.9281 105.96 67.6992 108.907C67.4446 111.962 68.63 114.929 70.3582 117.395C72.1675 119.9 74.3265 122.133 76.7694 124.025C81.5452 127.838 87.1473 130.48 93.1272 131.74C93.8385 131.887 94.5536 132.012 95.2726 132.117C95.5013 132.172 95.7426 132.139 95.9473 132.022C96.152 131.906 96.3047 131.716 96.3743 131.491C96.4357 131.262 96.4045 131.018 96.2874 130.812C96.1703 130.606 95.9768 130.454 95.7487 130.39L95.7487 130.39Z" fill="#3F3D56"/>
<path d="M181.101 91.4644C173.29 91.3541 165.504 91.5523 157.743 92.059C155.09 92.2322 152.795 93.1699 152.795 94.7459C152.795 96.0635 155.072 97.6071 157.743 97.4327C165.5 96.9261 173.286 96.7279 181.101 96.838C187.472 96.928 187.468 91.5542 181.101 91.4644Z" fill="#CCCCCC"/>
<path d="M169.557 96.5718C168.713 96.5718 148.884 96.5403 148.884 93.8013C148.884 91.0625 168.713 91.031 169.557 91.031C170.401 91.031 190.23 91.0625 190.23 93.8013C190.23 96.5403 170.401 96.5718 169.557 96.5718ZM149.659 93.8013C150.202 94.6317 157.491 95.8076 169.557 95.8076C181.623 95.8076 188.912 94.6317 189.454 93.8013C188.912 92.9711 181.623 91.7952 169.557 91.7952C157.491 91.7952 150.202 92.9711 149.659 93.8013V93.8013Z" fill="#3F3D56"/>
<path d="M109.747 115.672C109.111 115.67 108.496 115.441 108.012 115.027C107.529 114.612 107.209 114.039 107.109 113.411L106.236 107.839C106.127 107.139 106.301 106.423 106.719 105.85C107.136 105.277 107.764 104.893 108.465 104.783L154.9 97.5069C155.601 97.3979 156.316 97.5713 156.889 97.9891C157.462 98.4068 157.846 99.0348 157.957 99.7353L158.829 105.307C158.939 106.008 158.765 106.723 158.347 107.296C157.93 107.869 157.302 108.253 156.601 108.363L110.166 115.639C110.027 115.661 109.887 115.672 109.747 115.672Z" fill="#2F2E41"/>
<path d="M90.5301 50.3797C101.292 50.3797 110.016 41.6554 110.016 30.8933C110.016 20.1313 101.292 11.407 90.5301 11.407C79.768 11.407 71.0437 20.1313 71.0437 30.8933C71.0437 41.6554 79.768 50.3797 90.5301 50.3797Z" fill="#E6E6E6"/>
<path d="M101.563 35.9354C102.186 35.7175 102.755 35.3689 103.231 34.9129C103.547 34.5877 103.787 34.1975 103.936 33.7697C104.085 33.3418 104.139 32.8865 104.093 32.4358C104.066 32.1146 103.966 31.8038 103.8 31.5278C103.633 31.2518 103.405 31.018 103.133 30.8447C102.428 30.4111 101.496 30.4274 100.555 30.8636L100.447 23.2571L99.6826 23.268L99.8102 32.2102L100.392 31.8287C101.066 31.3871 102.035 31.0668 102.733 31.4957C102.905 31.6092 103.049 31.761 103.153 31.9393C103.258 32.1175 103.319 32.3174 103.334 32.5233C103.366 32.8591 103.325 33.1979 103.215 33.5166C103.104 33.8353 102.926 34.1264 102.693 34.3702C101.865 35.1921 100.639 35.4675 99.2395 35.7194L99.3749 36.4714C100.119 36.3584 100.851 36.179 101.563 35.9354V35.9354Z" fill="#2F2E41"/>
<path d="M108.315 22.7231L104.246 23.3394L104.361 24.0948L108.43 23.4786L108.315 22.7231Z" fill="#2F2E41"/>
<path d="M95.4707 24.6679L91.4014 25.2842L91.5158 26.0396L95.5851 25.4234L95.4707 24.6679Z" fill="#2F2E41"/>
<path d="M103.408 115.331C102.707 115.329 102.023 115.115 101.447 114.715C100.872 114.315 100.431 113.75 100.185 113.094L86.7497 77.1133C85.1075 72.7005 85.2829 67.8165 87.2372 63.5328C89.1916 59.2492 92.7654 55.9157 97.1745 54.2637L108.099 50.1845C108.521 50.0257 108.971 49.952 109.422 49.9676C109.873 49.9833 110.317 50.088 110.727 50.2757C111.136 50.4586 111.505 50.7213 111.812 51.0484C112.119 51.3755 112.357 51.7604 112.513 52.1807L137.401 99.1711C137.563 99.5948 137.639 100.046 137.625 100.5C137.612 100.953 137.509 101.399 137.322 101.812C137.135 102.226 136.869 102.598 136.538 102.908C136.207 103.218 135.817 103.459 135.393 103.618L104.609 115.113C104.225 115.257 103.818 115.331 103.408 115.331Z" fill="#2F2E41"/>
<path d="M104.784 51.4221L129.478 84.4441L112.769 51.7687C112.631 51.3874 112.419 51.0371 112.146 50.7377C111.872 50.4383 111.543 50.1957 111.175 50.0237C110.808 49.8518 110.411 49.7539 110.006 49.7356C109.601 49.7173 109.196 49.779 108.815 49.9171L104.784 51.4221Z" fill="#E6E6E6"/>
<path d="M143.884 76.5001L99.7933 73.66C99.0983 73.6152 98.419 73.434 97.794 73.1267C97.1691 72.8194 96.6108 72.392 96.151 71.8689C95.6913 71.3459 95.339 70.7373 95.1144 70.0781C94.8898 69.4189 94.7973 68.7219 94.842 68.027C94.8868 67.332 95.068 66.6526 95.3753 66.0277C95.6826 65.4027 96.11 64.8444 96.6331 64.3847C97.1562 63.9249 97.7647 63.5727 98.4239 63.3481C99.0831 63.1235 99.7801 63.0309 100.475 63.0757L144.566 65.9155C144.891 65.9365 145.21 66.0213 145.502 66.1652C145.795 66.3091 146.056 66.5093 146.272 66.7542C146.487 66.9992 146.652 67.2842 146.757 67.5929C146.862 67.9016 146.906 68.228 146.885 68.5535L146.522 74.1813C146.48 74.8386 146.178 75.4522 145.683 75.887C145.189 76.3219 144.541 76.5424 143.884 76.5001Z" fill="#E6E6E6"/>
<path d="M132.102 78.321C132.044 78.321 131.986 78.3191 131.927 78.3154L95.7222 75.9833C95.3717 75.9608 95.0291 75.8694 94.7139 75.7144C94.3987 75.5595 94.1171 75.3439 93.8852 75.0801C93.6533 74.8163 93.4756 74.5094 93.3624 74.177C93.2491 73.8445 93.2024 73.493 93.225 73.1425L93.8441 63.5299C93.8667 63.1794 93.9581 62.8367 94.1131 62.5215C94.2681 62.2064 94.4837 61.9248 94.7475 61.6929C95.0114 61.4611 95.3183 61.2834 95.6508 61.1702C95.9833 61.0569 96.3348 61.0103 96.6853 61.0329L132.89 63.3648C133.598 63.4111 134.258 63.7363 134.726 64.2688C135.194 64.8014 135.432 65.4979 135.387 66.2056L134.768 75.8184C134.734 76.3334 134.552 76.8277 134.244 77.2419C133.936 77.6561 133.515 77.9725 133.031 78.1532C132.734 78.2643 132.42 78.3212 132.102 78.321Z" fill="#2F2E41"/>
<path d="M90.3068 17.9353C92.8703 15.7305 96.3905 17.7028 99.3304 17.3576C102.143 17.0272 104.364 14.5043 104.931 11.8241C105.593 8.69707 103.97 5.56428 101.578 3.61466C98.9576 1.47934 95.4827 0.866346 92.1898 1.2614C88.4157 1.71417 84.9641 3.47342 81.867 5.60133C78.8775 7.59165 76.1284 9.92121 73.6744 12.5435C71.477 14.9704 69.6152 17.8632 69.0207 21.1289C68.4805 24.0967 68.893 27.3855 70.6475 29.8997C71.5778 31.1883 72.8245 32.2155 74.2674 32.882C75.7718 33.6207 77.3766 34.1488 78.8342 34.9841C81.0379 36.247 83.1798 38.8657 82.4895 41.5907C82.3415 42.186 82.0494 42.7358 81.639 43.1917C81.1458 43.7391 80.2563 43.0157 80.7507 42.4668C81.6192 41.5028 81.5849 40.2171 81.1221 39.0662C80.5718 37.7692 79.5973 36.6976 78.3583 36.027C76.8327 35.1547 75.1483 34.6163 73.5846 33.8217C72.0879 33.0959 70.7887 32.0192 69.7976 30.6833C67.926 28.0825 67.3662 24.6976 67.7907 21.5664C68.25 18.1779 69.991 15.0987 72.1734 12.5184C74.5485 9.71031 77.466 7.33332 80.4465 5.19791C83.6446 2.90661 87.1778 0.969462 91.0876 0.268828C94.4768 -0.338513 98.1504 0.0354044 101.114 1.88235C103.88 3.60635 106.002 6.57198 106.213 9.88578C106.289 11.3935 105.961 12.8943 105.264 14.2335C104.567 15.5727 103.526 16.7021 102.248 17.5054C100.937 18.2902 99.4117 18.6435 97.8886 18.5153C96.2603 18.4111 94.6304 17.9125 92.9917 18.0509C92.2502 18.0959 91.5435 18.3814 90.9789 18.8642C90.4188 19.3459 89.7513 18.4131 90.3068 17.9353V17.9353Z" fill="#2F2E41"/>
<path d="M314.545 228.172H32.4536C32.3332 228.171 32.2178 228.123 32.1328 228.038C32.0478 227.953 32 227.837 32 227.717C32 227.596 32.0478 227.481 32.1328 227.396C32.2178 227.31 32.3332 227.262 32.4536 227.262H314.545C314.666 227.262 314.781 227.31 314.867 227.395C314.952 227.481 315 227.596 315 227.717C315 227.838 314.952 227.953 314.867 228.039C314.781 228.124 314.666 228.172 314.545 228.172V228.172Z" fill="#3F3D56"/>
<path d="M238 138.5L244.638 137.897C246.98 137.684 249 139.528 249 141.88V153.707C249 156.203 246.74 158.089 244.284 157.643L238 156.5" stroke="#3F3D56" stroke-width="0.75"/>
</svg>
