<svg width="298" height="263" viewBox="0 0 298 263" fill="none" xmlns="http://www.w3.org/2000/svg">
<g opacity="0.3">
<rect width="35.8893" height="35.8893" transform="matrix(1 -8.74228e-08 -8.74228e-08 -1 154 226.646)" fill="#D9D9D9"/>
<rect width="35.8893" height="35.8893" transform="matrix(1 -8.74228e-08 -8.74228e-08 -1 189.889 226.646)" fill="#D9D9D9" fill-opacity="0.5"/>
<rect width="35.8893" height="35.8893" transform="matrix(1 -8.74228e-08 -8.74228e-08 -1 189.889 190.757)" fill="#D9D9D9" fill-opacity="0.9"/>
<rect width="35.8893" height="35.8893" transform="matrix(1 -8.74228e-08 -8.74228e-08 -1 225.779 226.646)" fill="#D9D9D9" fill-opacity="0.9"/>
<rect width="35.8893" height="35.8893" transform="matrix(1 -8.74228e-08 -8.74228e-08 -1 261.668 226.646)" fill="#D9D9D9" fill-opacity="0.5"/>
<rect width="35.8893" height="35.8893" transform="matrix(1 -8.74228e-08 -8.74228e-08 -1 261.668 262.536)" fill="#D9D9D9" fill-opacity="0.9"/>
<rect width="35.8893" height="35.8893" transform="matrix(1 -8.74228e-08 -8.74228e-08 -1 154 156.889)" fill="#D9D9D9" fill-opacity="0.9"/>
</g>
<path d="M161.219 201.858C159.262 199.118 156.613 197.113 153.283 196.363C150.379 195.708 147.393 195.82 144.441 195.843L107.114 196.13C103.917 196.155 100.852 198.925 101.001 202.244C101.148 205.535 103.687 208.384 107.114 208.357C118.048 208.273 128.982 208.189 139.916 208.104C142.494 208.084 145.073 208.038 147.651 208.046C148.23 208.048 148.807 208.079 149.385 208.085C149.525 208.087 149.626 208.086 149.698 208.083C149.716 208.088 149.731 208.093 149.754 208.1C150.056 208.182 150.365 208.239 150.669 208.318C150.562 208.321 150.866 208.51 151.018 208.575C151.039 208.616 151.083 208.689 151.158 208.802C151.262 208.997 151.569 209.588 151.582 209.57C152.044 210.739 152.426 211.938 152.723 213.159C153.434 215.851 153.59 216.414 153.692 218.94C153.821 222.132 156.411 225.206 159.805 225.054C163.007 224.91 166.057 222.363 165.919 218.94C165.685 213.173 164.673 206.695 161.219 201.858Z" fill="#004D61"/>
<path d="M109.308 215.654C108.607 211.405 107.919 207.154 107.205 202.908C106.479 198.6 104.998 194.655 101.646 191.828C100.75 191.073 99.8217 190.368 98.889 189.664C98.561 189.417 98.2336 189.17 97.9096 188.917C97.8902 188.902 97.8778 188.893 97.861 188.88C97.8254 188.849 97.7827 188.812 97.7252 188.764C96.328 187.581 94.978 186.346 93.6921 185.034C92.5501 183.868 91.458 182.652 90.4158 181.387C90.1553 181.07 89.8982 180.752 89.6445 180.43C89.6009 180.375 89.3658 180.071 89.2109 179.873C89.0669 179.674 88.8037 179.316 88.7595 179.253C88.463 178.834 88.1718 178.411 87.886 177.984C85.9388 175.067 84.2528 171.983 82.8474 168.77C82.708 168.451 82.572 168.131 82.4392 167.808C82.4036 167.71 82.3575 167.583 82.2963 167.415C82.0131 166.636 81.7304 165.858 81.4715 165.07C80.9213 163.396 80.4483 161.698 80.0525 159.975C79.8568 159.124 79.6806 158.269 79.5239 157.409C79.4431 156.967 79.3676 156.524 79.2973 156.08C79.2857 156.007 79.217 155.528 79.1765 155.257C79.1467 154.985 79.0911 154.504 79.0836 154.429C79.0389 153.982 78.9991 153.534 78.9644 153.086C78.8863 152.077 78.8334 151.067 78.8059 150.055C78.7589 148.256 78.7911 146.457 78.9025 144.659C78.9659 143.648 79.0562 142.641 79.1674 141.635C79.1741 141.573 79.1794 141.524 79.1842 141.479C79.1909 141.434 79.1988 141.383 79.2081 141.32C79.2904 140.764 79.3769 140.209 79.4738 139.655C79.8405 137.554 80.3173 135.473 80.9025 133.422C81.1795 132.452 81.4805 131.49 81.8053 130.535C81.95 130.112 82.0994 129.69 82.2534 129.269C82.2433 129.296 82.7051 128.117 82.7112 128.077C84.5433 123.749 87.5399 119.802 87.544 114.885C87.5468 111.556 84.7302 108.367 81.4306 108.521C79.7856 108.583 78.2287 109.281 77.0883 110.468C75.9479 111.655 75.313 113.239 75.3173 114.885C75.3173 114.96 75.3169 115.024 75.3167 115.086C75.2859 115.189 75.2602 115.276 75.2371 115.352C74.8798 116.129 74.4421 116.866 74.0499 117.624C72.9761 119.696 72.0595 121.836 71.1888 124.008C69.7634 127.544 68.6723 131.206 67.9299 134.946C66.3161 143.14 66.1909 151.558 67.5601 159.797C69.9304 174.245 77.7471 188.075 88.6141 197.371C89.5572 198.178 90.5233 198.957 91.4984 199.721C91.902 200.037 92.3089 200.347 92.7178 200.656C92.9111 200.801 93.7119 201.433 93.3596 201.127C94.1171 201.773 94.4359 202.099 94.6305 202.575C94.6587 202.685 94.6971 202.834 94.7492 203.037C94.8863 203.574 95.0165 204.11 95.1247 204.655C96.0706 209.412 96.728 214.249 97.5182 219.038C98.0612 222.328 102.112 224.469 105.038 223.483C108.445 222.335 109.89 219.179 109.308 215.654Z" fill="#004D61"/>
<path d="M161.838 227.993C159.27 228 156.805 226.988 154.983 225.179C153.16 223.371 152.13 220.913 152.117 218.346V211.372C144.816 212.189 119.815 212 112.648 210.849V218.067C112.629 220.632 111.596 223.086 109.775 224.893C107.955 226.7 105.493 227.714 102.928 227.714C100.362 227.714 97.9009 226.7 96.0801 224.893C94.2593 223.086 93.2267 220.632 93.2075 218.067V203.895C83.5009 198.502 75.409 190.617 69.7671 181.054C64.1251 171.49 61.1374 160.594 61.1123 149.49C61.1123 130.451 69.7409 112.69 84.7858 100.761C94.5679 92.9792 106.453 88.2991 118.915 87.322C120.606 87.1894 122.308 87.1222 123.973 87.1222C129.839 87.1222 156.305 88.0284 162.945 89.9388L178.086 74.9145C178.309 74.6907 178.593 74.5382 178.903 74.4765C179.212 74.4147 179.533 74.4467 179.825 74.5681C180.118 74.6849 180.37 74.8878 180.546 75.1501C180.722 75.4124 180.815 75.7219 180.812 76.0379V78.4266L183.76 75.5067C183.983 75.2826 184.267 75.1299 184.576 75.0681C184.885 75.0062 185.206 75.0381 185.498 75.1597C185.791 75.2765 186.043 75.4794 186.22 75.7418C186.396 76.0042 186.489 76.3138 186.486 76.63V103.324C194.084 110.174 199.875 118.792 203.345 128.414C206.816 138.037 207.859 148.367 206.383 158.489C204.906 168.611 200.956 178.213 194.881 186.443C188.807 194.674 180.795 201.278 171.558 205.672V218.346C171.545 220.913 170.515 223.371 168.693 225.179C166.87 226.988 164.405 228 161.838 227.993V227.993ZM152.882 210.505V218.346C152.901 220.708 153.853 222.968 155.53 224.631C157.208 226.295 159.475 227.229 161.838 227.229C164.2 227.229 166.467 226.295 168.145 224.631C169.822 222.968 170.774 220.708 170.794 218.346V205.189L171.012 205.086C181.377 200.167 190.176 192.473 196.432 182.856C204.405 170.584 207.72 155.863 205.779 141.358C203.837 126.853 196.768 113.523 185.849 103.779L185.722 103.665V76.63C185.725 76.4657 185.677 76.3046 185.585 76.1682C185.494 76.0319 185.362 75.927 185.209 75.8675C185.057 75.8024 184.889 75.7848 184.726 75.8171C184.564 75.8494 184.415 75.93 184.299 76.0483L180.048 80.2591V76.0378C180.051 75.8736 180.003 75.7124 179.911 75.5761C179.82 75.4398 179.688 75.3348 179.535 75.2753C179.383 75.2104 179.214 75.193 179.051 75.2255C178.889 75.258 178.74 75.3388 178.624 75.4574L163.158 90.8034L162.939 90.7345C156.766 88.8024 129.883 87.8864 123.973 87.8864C122.328 87.8864 120.646 87.9528 118.975 88.084C106.664 89.0491 94.9237 93.6723 85.2607 101.36C70.3996 113.143 61.8764 130.685 61.8764 149.49C61.9018 160.496 64.8735 171.294 70.4829 180.762C76.0923 190.231 84.1346 198.025 93.7745 203.335L93.9716 203.445V218.067C93.9913 220.429 94.9436 222.688 96.6211 224.352C98.2985 226.015 100.565 226.949 102.928 226.949C105.29 226.949 107.557 226.015 109.235 224.352C110.912 222.688 111.864 220.429 111.884 218.067V209.934L112.337 210.019C118.777 211.231 145.896 211.422 152.45 210.562L152.882 210.505Z" fill="#3F3D56"/>
<path d="M110.039 45.5131L67.7264 58.2289C66.3806 58.635 65.251 59.5587 64.5858 60.7971C63.9206 62.0354 63.7742 63.4872 64.1788 64.8335C64.5833 66.1798 65.5057 67.3104 66.7433 67.977C67.981 68.6436 69.4326 68.7916 70.7793 68.3886L107.807 57.2584L108.583 57.0253C108.74 53.0282 109.824 49.1223 111.75 45.6163C111.509 45.5075 111.25 45.4403 110.986 45.4176C110.667 45.3867 110.345 45.4192 110.039 45.5131Z" fill="#E6E6E6"/>
<path d="M70.0474 71.0996C69.4857 71.0982 68.9387 70.9203 68.4836 70.5912C68.0285 70.262 67.6883 69.7981 67.5112 69.2651L64.8653 61.281C64.7548 60.9476 64.711 60.5957 64.7366 60.2454C64.7621 59.895 64.8563 59.5532 65.014 59.2393C65.1716 58.9254 65.3896 58.6456 65.6554 58.416C65.9211 58.1863 66.2296 58.0113 66.563 57.9008L101.001 46.4879C101.334 46.3774 101.686 46.3336 102.036 46.3591C102.387 46.3846 102.729 46.4788 103.042 46.6364C103.356 46.794 103.636 47.0119 103.866 47.2776C104.095 47.5433 104.271 47.8517 104.381 48.1851L107.027 56.1691C107.247 56.8258 107.203 57.5424 106.904 58.1671C106.605 58.7918 106.074 59.2756 105.425 59.5159C105.393 59.5279 105.361 59.5391 105.328 59.5497L70.8914 70.9623C70.6192 71.053 70.3343 71.0993 70.0474 71.0996Z" fill="#2F2E41"/>
<path d="M134.542 31.334C127.591 31.3367 120.914 34.0438 115.925 38.8824C110.935 43.721 108.024 50.3113 107.807 57.2585C107.799 57.5298 107.796 57.8049 107.796 58.08C107.796 63.3698 109.364 68.5409 112.303 72.9392C115.242 77.3376 119.419 80.7657 124.306 82.79C129.194 84.8144 134.571 85.344 139.76 84.312C144.948 83.28 149.713 80.7327 153.454 76.9922C157.194 73.2517 159.742 68.4861 160.774 63.2978C161.806 58.1096 161.276 52.7319 159.252 47.8447C157.227 42.9575 153.799 38.7804 149.401 35.8415C145.003 32.9026 139.831 31.334 134.542 31.334V31.334ZM134.542 84.0618C127.653 84.0546 121.049 81.3149 116.178 76.444C111.307 71.573 108.567 64.9686 108.56 58.08C108.56 57.7246 108.567 57.3731 108.583 57.0254C108.79 51.936 110.488 47.0196 113.467 42.8876C116.445 38.7557 120.573 35.5905 125.336 33.7855C130.099 31.9806 135.288 31.6156 140.257 32.7359C145.226 33.8562 149.756 36.4124 153.283 40.0866C156.811 43.7608 159.181 48.391 160.099 53.4014C161.016 58.4117 160.44 63.5812 158.443 68.2671C156.446 72.9529 153.116 76.9483 148.866 79.7566C144.617 82.5648 139.635 84.0619 134.542 84.0618V84.0618Z" fill="#3F3D56"/>
<path d="M157.085 58.0798C157.085 64.0586 154.71 69.7925 150.482 74.0202C146.254 78.2478 140.52 80.6229 134.542 80.6229C128.563 80.6229 122.829 78.2478 118.601 74.0202C114.374 69.7925 111.999 64.0586 111.999 58.0798C111.999 57.3653 112.033 56.6623 112.098 55.9669C112.641 50.1967 115.386 44.8575 119.762 41.0578C124.138 37.258 129.81 35.2898 135.599 35.5617C141.388 35.8336 146.851 38.3248 150.852 42.518C154.852 46.7112 157.085 52.2842 157.085 58.0798V58.0798Z" fill="#E6E6E6"/>
<path d="M141.255 59.5777C140.708 58.8592 139.989 58.2902 139.165 57.9232C138.148 57.4946 137.097 57.1495 136.024 56.8916V50.7553C137.674 51.004 139.221 51.7095 140.491 52.7918L141.736 50.1363C141.02 49.4981 140.197 48.9899 139.306 48.6347C138.318 48.2347 137.281 47.9687 136.223 47.8438V44.7336H133.338V47.8744C132.224 47.9995 131.15 48.3603 130.186 48.9328C129.315 49.448 128.582 50.1664 128.05 51.0266C127.542 51.866 127.278 52.8308 127.29 53.812C127.24 54.8753 127.548 55.9246 128.165 56.7923C128.732 57.5435 129.482 58.1379 130.342 58.5193C131.376 58.9606 132.444 59.3146 133.537 59.5777V65.458C131.59 65.3111 129.735 64.571 128.222 63.3374L126.976 65.9967C127.822 66.6962 128.784 67.2419 129.819 67.6091C130.953 68.0148 132.137 68.2616 133.338 68.3427V71.4261H136.223V68.2854C137.825 68.1103 139.328 67.4213 140.506 66.3215C141.025 65.8238 141.435 65.2239 141.71 64.5596C141.985 63.8953 142.118 63.1812 142.103 62.4624C142.151 61.433 141.852 60.4173 141.255 59.5777V59.5777ZM133.537 56.2421C132.834 56.029 132.181 55.6783 131.615 55.2104C131.39 55.0109 131.213 54.7642 131.096 54.4881C130.978 54.212 130.923 53.9132 130.935 53.6133C130.914 52.9328 131.164 52.2718 131.63 51.7755C132.147 51.2548 132.813 50.9088 133.537 50.7859V56.2421ZM137.835 64.3728C137.348 64.8727 136.713 65.2035 136.024 65.3166V60.2578C136.683 60.4345 137.299 60.7425 137.835 61.1633C138.039 61.337 138.2 61.5543 138.308 61.7991C138.416 62.0438 138.467 62.3097 138.458 62.577C138.484 63.2328 138.262 63.8743 137.835 64.3728V64.3728Z" fill="#004D61"/>
<path d="M71.2754 103.458C70.6848 103.457 70.1109 103.261 69.6429 102.901C69.1749 102.54 68.8388 102.036 68.6868 101.465L67.2463 96.0126C67.066 95.3273 67.1648 94.5985 67.5212 93.986C67.8776 93.3734 68.4623 92.9273 69.1472 92.7453L114.593 80.7365C115.279 80.5576 116.007 80.6575 116.62 81.0145C117.232 81.3714 117.678 81.9564 117.86 82.6413L119.08 87.2607L118.852 87.2784C107.196 88.1847 96.0444 92.4105 86.7153 99.4559L86.6491 99.488L71.954 103.37C71.7325 103.428 71.5045 103.458 71.2754 103.458V103.458Z" fill="#2F2E41"/>
<path d="M63.7487 130.39C58.4177 129.602 53.3192 127.674 48.8007 124.738C46.5622 123.284 44.4898 121.589 42.6209 119.683C40.7762 117.802 39.0115 115.663 38.0978 113.158C37.2187 110.839 37.2641 108.272 38.2244 105.986C39.1716 103.714 40.9811 101.911 43.256 100.971C45.5445 100.059 48.3095 99.9609 50.5368 100.96C51.5981 101.426 52.5165 102.165 53.1978 103.102C53.5144 103.535 53.7489 104.021 53.8894 104.538C54.0199 105.007 54.0318 105.5 53.924 105.975C53.7934 106.448 53.563 106.888 53.2485 107.265C52.9339 107.642 52.5423 107.948 52.0999 108.161C51.1264 108.661 50.0716 108.982 48.9851 109.111C47.8923 109.26 46.3225 109.396 45.444 108.519C45.2631 108.345 45.1209 108.135 45.0265 107.903C44.9605 107.725 44.9379 107.534 44.9606 107.346C44.9478 107.429 45.0136 107.166 45.0099 107.176C44.996 107.215 44.9358 107.31 45.0213 107.164C45.0481 107.116 45.0778 107.07 45.1104 107.025C45.0814 107.063 45.0176 107.126 45.1315 107.018C45.2256 106.915 45.3466 106.84 45.4808 106.802C45.5337 106.787 45.5874 106.775 45.6404 106.76C45.7752 106.723 45.506 106.762 45.6439 106.758C45.6971 106.756 45.751 106.757 45.804 106.755C45.9393 106.749 45.6706 106.718 45.8002 106.751C45.8506 106.763 45.9004 106.776 45.95 106.791C46.0578 106.825 45.8737 106.712 45.9467 106.797C46.0323 106.896 45.8568 106.701 45.9541 106.796C46.0025 106.844 46.0482 106.894 46.0908 106.947C46.2595 107.114 46.487 107.207 46.7241 107.207C46.9612 107.207 47.1887 107.114 47.3574 106.947C47.5204 106.777 47.6113 106.55 47.6113 106.314C47.6113 106.078 47.5204 105.851 47.3574 105.681C46.4742 104.586 44.7298 104.856 43.8364 105.782C42.697 106.962 43.1482 108.832 44.2565 109.861C45.5111 111.027 47.2881 111.108 48.902 110.913C50.266 110.782 51.5951 110.406 52.8257 109.804C54.0484 109.203 55.0048 108.17 55.5095 106.904C55.7374 106.229 55.8192 105.513 55.7496 104.804C55.68 104.094 55.4606 103.408 55.1058 102.79C53.6809 100.111 50.7304 98.7375 47.814 98.4996C46.3125 98.382 44.8025 98.5633 43.3716 99.0331C41.9406 99.5029 40.617 100.252 39.4774 101.236C37.2807 103.214 35.9281 105.96 35.6992 108.907C35.4446 111.962 36.63 114.929 38.3582 117.395C40.1675 119.9 42.3265 122.133 44.7694 124.025C49.5452 127.838 55.1473 130.48 61.1272 131.74C61.8385 131.887 62.5536 132.012 63.2726 132.117C63.5013 132.172 63.7426 132.139 63.9473 132.022C64.152 131.906 64.3047 131.716 64.3743 131.491C64.4357 131.262 64.4045 131.018 64.2874 130.812C64.1703 130.606 63.9768 130.454 63.7487 130.39L63.7487 130.39Z" fill="#3F3D56"/>
<path d="M149.101 91.4644C141.29 91.3541 133.504 91.5523 125.743 92.059C123.09 92.2322 120.795 93.1699 120.795 94.7459C120.795 96.0635 123.072 97.6071 125.743 97.4327C133.5 96.9261 141.286 96.7279 149.101 96.838C155.472 96.928 155.468 91.5542 149.101 91.4644Z" fill="#CCCCCC"/>
<path d="M137.557 96.5718C136.713 96.5718 116.884 96.5403 116.884 93.8013C116.884 91.0625 136.713 91.031 137.557 91.031C138.401 91.031 158.23 91.0625 158.23 93.8013C158.23 96.5403 138.401 96.5718 137.557 96.5718ZM117.659 93.8013C118.202 94.6317 125.491 95.8076 137.557 95.8076C149.623 95.8076 156.912 94.6317 157.454 93.8013C156.912 92.9711 149.623 91.7952 137.557 91.7952C125.491 91.7952 118.202 92.9711 117.659 93.8013V93.8013Z" fill="#3F3D56"/>
<path d="M77.7474 115.672C77.1107 115.67 76.4956 115.441 76.0123 115.027C75.5289 114.612 75.2088 114.039 75.1094 113.411L74.2364 107.839C74.1274 107.139 74.3008 106.423 74.7186 105.85C75.1363 105.277 75.7643 104.893 76.4648 104.783L122.9 97.5069C123.601 97.3979 124.316 97.5713 124.889 97.9891C125.462 98.4068 125.846 99.0348 125.957 99.7353L126.829 105.307C126.939 106.008 126.765 106.723 126.347 107.296C125.93 107.869 125.302 108.253 124.601 108.363L78.1658 115.639C78.0274 115.661 77.8875 115.672 77.7474 115.672Z" fill="#2F2E41"/>
<path d="M58.5301 50.3797C69.2921 50.3797 78.0164 41.6554 78.0164 30.8933C78.0164 20.1313 69.2921 11.407 58.5301 11.407C47.768 11.407 39.0437 20.1313 39.0437 30.8933C39.0437 41.6554 47.768 50.3797 58.5301 50.3797Z" fill="#E6E6E6"/>
<path d="M69.5629 35.9354C70.1857 35.7175 70.7546 35.3689 71.2314 34.9129C71.5469 34.5877 71.7875 34.1975 71.9363 33.7697C72.0851 33.3418 72.1386 32.8865 72.093 32.4358C72.0665 32.1146 71.966 31.8038 71.7995 31.5278C71.633 31.2518 71.4049 31.018 71.1331 30.8447C70.4279 30.4111 69.4961 30.4274 68.5552 30.8636L68.4466 23.2571L67.6826 23.268L67.8102 32.2102L68.3919 31.8287C69.0663 31.3871 70.0355 31.0668 70.7327 31.4957C70.9052 31.6092 71.0491 31.761 71.1534 31.9393C71.2576 32.1175 71.3193 32.3174 71.3337 32.5233C71.3659 32.8591 71.3253 33.1979 71.2148 33.5166C71.1043 33.8353 70.9264 34.1264 70.6933 34.3702C69.8649 35.1921 68.6389 35.4675 67.2395 35.7194L67.3749 36.4714C68.1188 36.3584 68.8511 36.179 69.5629 35.9354V35.9354Z" fill="#2F2E41"/>
<path d="M76.3154 22.7231L72.2461 23.3394L72.3605 24.0948L76.4298 23.4786L76.3154 22.7231Z" fill="#2F2E41"/>
<path d="M63.4707 24.6679L59.4014 25.2842L59.5158 26.0396L63.5851 25.4234L63.4707 24.6679Z" fill="#2F2E41"/>
<path d="M71.4076 115.331C70.7068 115.329 70.0231 115.115 69.4474 114.715C68.8717 114.315 68.4314 113.75 68.185 113.094L54.7497 77.1133C53.1075 72.7005 53.2829 67.8165 55.2372 63.5328C57.1916 59.2492 60.7654 55.9157 65.1745 54.2637L76.099 50.1845C76.5214 50.0257 76.9711 49.952 77.4221 49.9676C77.8731 49.9833 78.3166 50.088 78.727 50.2757C79.1364 50.4586 79.5052 50.7213 79.812 51.0484C80.1187 51.3755 80.3571 51.7604 80.5134 52.1807L105.401 99.1711C105.563 99.5948 105.639 100.046 105.625 100.5C105.612 100.953 105.509 101.399 105.322 101.812C105.135 102.226 104.869 102.598 104.538 102.908C104.207 103.218 103.817 103.459 103.393 103.618L72.6094 115.113C72.2251 115.257 71.8181 115.331 71.4076 115.331Z" fill="#2F2E41"/>
<path d="M72.7844 51.4221L97.4782 84.4441L80.769 51.7687C80.631 51.3874 80.4193 51.0371 80.1458 50.7377C79.8724 50.4383 79.5427 50.1957 79.1755 50.0237C78.8083 49.8518 78.4108 49.7539 78.0058 49.7356C77.6007 49.7173 77.196 49.779 76.8148 49.9171L72.7844 51.4221Z" fill="#E6E6E6"/>
<path d="M111.884 76.5001L67.7933 73.66C67.0983 73.6152 66.419 73.434 65.794 73.1267C65.1691 72.8194 64.6108 72.392 64.151 71.8689C63.6913 71.3459 63.339 70.7373 63.1144 70.0781C62.8898 69.4189 62.7973 68.7219 62.842 68.027C62.8868 67.332 63.068 66.6526 63.3753 66.0277C63.6826 65.4027 64.11 64.8444 64.6331 64.3847C65.1562 63.9249 65.7647 63.5727 66.4239 63.3481C67.0831 63.1235 67.7801 63.0309 68.4751 63.0757L112.566 65.9155C112.891 65.9365 113.21 66.0213 113.502 66.1652C113.795 66.3091 114.056 66.5093 114.272 66.7542C114.487 66.9992 114.652 67.2842 114.757 67.5929C114.862 67.9016 114.906 68.228 114.885 68.5535L114.522 74.1813C114.48 74.8386 114.178 75.4522 113.683 75.887C113.189 76.3219 112.541 76.5424 111.884 76.5001Z" fill="#E6E6E6"/>
<path d="M100.102 78.321C100.044 78.321 99.9858 78.3191 99.9272 78.3154H99.9271L63.7222 75.9833C63.3717 75.9608 63.0291 75.8694 62.7139 75.7144C62.3987 75.5595 62.1171 75.3439 61.8852 75.0801C61.6533 74.8163 61.4756 74.5094 61.3624 74.177C61.2491 73.8445 61.2024 73.493 61.225 73.1425L61.8441 63.5299C61.8667 63.1794 61.9581 62.8367 62.1131 62.5215C62.2681 62.2064 62.4837 61.9248 62.7475 61.6929C63.0114 61.4611 63.3183 61.2834 63.6508 61.1702C63.9833 61.0569 64.3348 61.0103 64.6853 61.0329L100.89 63.3648C101.598 63.4111 102.258 63.7363 102.726 64.2688C103.194 64.8014 103.432 65.4979 103.387 66.2056L102.768 75.8184C102.734 76.3334 102.552 76.8277 102.244 77.2419C101.936 77.6561 101.515 77.9725 101.031 78.1532C100.734 78.2644 100.42 78.3212 100.102 78.321V78.321Z" fill="#2F2E41"/>
<path d="M58.3068 17.9353C60.8703 15.7305 64.3905 17.7028 67.3304 17.3576C70.143 17.0272 72.3638 14.5043 72.9312 11.8241C73.5931 8.69707 71.97 5.56428 69.5778 3.61466C66.9576 1.47934 63.4827 0.866346 60.1898 1.2614C56.4157 1.71417 52.9641 3.47342 49.867 5.60133C46.8775 7.59165 44.1284 9.92121 41.6744 12.5435C39.477 14.9704 37.6152 17.8632 37.0207 21.1289C36.4805 24.0967 36.893 27.3855 38.6475 29.8997C39.5778 31.1883 40.8245 32.2155 42.2674 32.882C43.7718 33.6207 45.3766 34.1488 46.8342 34.9841C49.0379 36.247 51.1798 38.8657 50.4895 41.5907C50.3415 42.186 50.0494 42.7358 49.639 43.1917C49.1458 43.7391 48.2563 43.0157 48.7507 42.4668C49.6192 41.5028 49.5849 40.2171 49.1221 39.0662C48.5718 37.7692 47.5973 36.6976 46.3583 36.027C44.8327 35.1547 43.1483 34.6163 41.5846 33.8217C40.0879 33.0959 38.7887 32.0192 37.7976 30.6833C35.926 28.0825 35.3662 24.6976 35.7907 21.5664C36.25 18.1779 37.991 15.0987 40.1734 12.5184C42.5485 9.71031 45.466 7.33332 48.4465 5.19791C51.6446 2.90661 55.1778 0.969462 59.0876 0.268828C62.4768 -0.338513 66.1504 0.0354044 69.1141 1.88235C71.8804 3.60635 74.0018 6.57198 74.2128 9.88578C74.2885 11.3935 73.9611 12.8943 73.2643 14.2335C72.5675 15.5727 71.5264 16.7021 70.2482 17.5054C68.9366 18.2902 67.4117 18.6435 65.8886 18.5153C64.2603 18.4111 62.6304 17.9125 60.9917 18.0509C60.2502 18.0959 59.5435 18.3814 58.9789 18.8642C58.4188 19.3459 57.7513 18.4131 58.3068 17.9353V17.9353Z" fill="#2F2E41"/>
<path d="M282.545 228.172H0.453627C0.333197 228.171 0.217822 228.123 0.132788 228.038C0.047754 227.953 0 227.837 0 227.717C0 227.596 0.047754 227.481 0.132788 227.396C0.217822 227.31 0.333197 227.262 0.453627 227.262H282.545C282.666 227.262 282.781 227.31 282.867 227.395C282.952 227.481 283 227.596 283 227.717C283 227.838 282.952 227.953 282.867 228.039C282.781 228.124 282.666 228.172 282.545 228.172V228.172Z" fill="#3F3D56"/>
<path d="M206 138.5L212.638 137.897C214.98 137.684 217 139.528 217 141.88V153.707C217 156.203 214.74 158.089 212.284 157.643L206 156.5" stroke="#3F3D56" stroke-width="0.75"/>
</svg>
