<svg width="279" height="238" viewBox="0 0 279 238" fill="none" xmlns="http://www.w3.org/2000/svg">
<g clip-path="url(#clip0_1658_2895)">
<path d="M236.12 167.691H0V0H236.12V167.691Z" fill="white"/>
<path d="M19.234 68.874C18.6238 68.874 18.0387 69.1164 17.6072 69.5477C17.1757 69.9791 16.9333 70.5641 16.9333 71.1742C16.9333 71.7842 17.1757 72.3693 17.6072 72.8006C18.0387 73.232 18.6238 73.4743 19.234 73.4743H98.9724C99.5818 73.4732 100.166 73.2303 100.596 72.7991C101.027 72.3679 101.269 71.7835 101.269 71.1742C101.269 70.5649 101.027 69.9805 100.596 69.5493C100.166 69.118 99.5818 68.8752 98.9724 68.874H19.234Z" fill="#47A138"/>
<path d="M19.234 82.6748C18.6238 82.6735 18.0381 82.9146 17.6058 83.3451C17.1734 83.7755 16.9298 84.3601 16.9285 84.9701C16.9272 85.5801 17.1683 86.1657 17.5989 86.598C18.0294 87.0302 18.6141 87.2738 19.2243 87.2751H99.0313C99.6415 87.2751 100.227 87.0328 100.658 86.6014C101.09 86.17 101.332 85.585 101.332 84.975C101.332 84.3649 101.09 83.7799 100.658 83.3485C100.227 82.9171 99.6415 82.6748 99.0313 82.6748H19.234Z" fill="#47A138"/>
<path d="M19.234 96.2783C18.6238 96.277 18.0381 96.5181 17.6058 96.9486C17.1734 97.379 16.9298 97.9636 16.9285 98.5736C16.9272 99.1837 17.1683 99.7692 17.5989 100.201C18.0294 100.634 18.6141 100.877 19.2243 100.879H37.1832C37.7934 100.879 38.3786 100.636 38.81 100.205C39.2415 99.7736 39.4839 99.1885 39.4839 98.5785C39.4839 97.9684 39.2415 97.3834 38.81 96.952C38.3786 96.5207 37.7934 96.2783 37.1832 96.2783H19.234Z" fill="#47A138"/>
<path d="M236.12 167.691H0V0H236.12V167.691ZM3.88143 163.811H232.239V3.88058H3.88143V163.811Z" fill="#E5E5E5"/>
<path d="M161.824 130.845C160.727 130.843 159.674 131.277 158.897 132.051C158.12 132.826 157.682 133.877 157.68 134.974C157.678 136.07 158.111 137.123 158.885 137.901C159.659 138.678 160.71 139.117 161.807 139.12H201.323C201.866 139.12 202.405 139.014 202.908 138.806C203.41 138.598 203.867 138.294 204.252 137.909C204.636 137.525 204.942 137.069 205.15 136.567C205.358 136.064 205.465 135.526 205.465 134.982C205.465 134.439 205.358 133.9 205.15 133.398C204.942 132.896 204.636 132.439 204.252 132.055C203.867 131.671 203.41 131.366 202.908 131.158C202.405 130.951 201.866 130.844 201.323 130.845H161.824Z" fill="#E4E4E4"/>
<path d="M161.824 80.7383C160.727 80.7368 159.674 81.1708 158.897 81.945C158.12 82.7192 157.682 83.7703 157.68 84.8671C157.678 85.9639 158.111 87.0167 158.885 87.7942C159.659 88.5717 160.71 89.0102 161.807 89.0133H201.323C201.866 89.0138 202.405 88.9072 202.908 88.6995C203.41 88.4919 203.867 88.1872 204.252 87.8029C204.636 87.4187 204.942 86.9624 205.15 86.4601C205.358 85.9578 205.465 85.4195 205.465 84.8758C205.465 84.3321 205.358 83.7937 205.15 83.2915C204.942 82.7892 204.636 82.3329 204.252 81.9487C203.867 81.5644 203.41 81.2597 202.908 81.052C202.405 80.8444 201.866 80.7377 201.323 80.7383H161.824Z" fill="#E4E4E4"/>
<path d="M19.234 132.761C18.9319 132.76 18.6326 132.819 18.3532 132.934C18.0738 133.049 17.8198 133.218 17.6058 133.431C17.3917 133.644 17.2217 133.897 17.1055 134.176C16.9892 134.455 16.9291 134.754 16.9285 135.056C16.9278 135.358 16.9867 135.657 17.1017 135.937C17.2168 136.216 17.3857 136.47 17.5989 136.684C17.8121 136.898 18.0653 137.068 18.3442 137.184C18.6231 137.3 18.9222 137.36 19.2243 137.361H99.0313C99.6415 137.361 100.227 137.119 100.658 136.687C101.09 136.256 101.332 135.671 101.332 135.061C101.332 134.451 101.09 133.866 100.658 133.434C100.227 133.003 99.6415 132.761 99.0313 132.761H19.234Z" fill="#E4E4E4"/>
<path d="M19.234 146.365C18.9319 146.365 18.6326 146.423 18.3532 146.538C18.0738 146.653 17.8198 146.822 17.6058 147.036C17.3917 147.249 17.2217 147.502 17.1055 147.781C16.9893 148.06 16.9291 148.358 16.9285 148.661C16.9278 148.963 16.9867 149.262 17.1017 149.541C17.2168 149.82 17.3857 150.074 17.5989 150.288C17.8121 150.502 18.0653 150.672 18.3442 150.789C18.6231 150.905 18.9222 150.965 19.2243 150.966H37.1832C37.7934 150.966 38.3786 150.723 38.81 150.292C39.2415 149.86 39.4839 149.275 39.4839 148.665C39.4839 148.055 39.2415 147.47 38.81 147.039C38.3786 146.608 37.7934 146.365 37.1832 146.365H19.234Z" fill="#E4E4E4"/>
<path d="M19.234 118.96C18.6238 118.96 18.0387 119.202 17.6072 119.634C17.1757 120.065 16.9333 120.65 16.9333 121.26C16.9333 121.87 17.1757 122.455 17.6072 122.887C18.0387 123.318 18.6238 123.56 19.234 123.56H98.9724C99.5818 123.559 100.166 123.316 100.596 122.885C101.027 122.454 101.269 121.869 101.269 121.26C101.269 120.651 101.027 120.066 100.596 119.635C100.166 119.204 99.5818 118.961 98.9724 118.96H19.234Z" fill="#E4E4E4"/>
<path d="M19.234 18.7881C18.6238 18.7881 18.0387 19.0304 17.6072 19.4618C17.1757 19.8932 16.9333 20.4782 16.9333 21.0882C16.9333 21.6983 17.1757 22.2833 17.6072 22.7147C18.0387 23.1461 18.6238 23.3884 19.234 23.3884H98.9724C99.5818 23.3872 100.166 23.1444 100.596 22.7132C101.027 22.2819 101.269 21.6975 101.269 21.0882C101.269 20.479 101.027 19.8946 100.596 19.4633C100.166 19.0321 99.5818 18.7892 98.9724 18.7881H19.234Z" fill="#E4E4E4"/>
<path d="M19.234 32.5889C18.9319 32.5882 18.6326 32.6471 18.3532 32.7621C18.0738 32.8771 17.8198 33.046 17.6058 33.2591C17.3917 33.4723 17.2217 33.7255 17.1055 34.0043C16.9892 34.2831 16.9291 34.5821 16.9285 34.8842C16.9278 35.1862 16.9867 35.4855 17.1017 35.7648C17.2168 36.0441 17.3857 36.298 17.5989 36.5121C17.8121 36.7261 18.0653 36.8961 18.3442 37.0122C18.6231 37.1284 18.9222 37.1885 19.2243 37.1892H99.0313C99.3334 37.1892 99.6326 37.1297 99.9117 37.0141C100.191 36.8985 100.444 36.7291 100.658 36.5155C100.872 36.3019 101.041 36.0483 101.157 35.7693C101.272 35.4902 101.332 35.1911 101.332 34.889C101.332 34.587 101.272 34.2879 101.157 34.0088C101.041 33.7297 100.872 33.4762 100.658 33.2626C100.444 33.049 100.191 32.8796 99.9117 32.764C99.6326 32.6484 99.3334 32.5889 99.0313 32.5889H19.234Z" fill="#E4E4E4"/>
<path d="M19.234 46.1924C18.6238 46.1911 18.0381 46.4322 17.6058 46.8627C17.1734 47.2931 16.9298 47.8776 16.9285 48.4877C16.9272 49.0977 17.1683 49.6833 17.5989 50.1156C18.0294 50.5478 18.6141 50.7914 19.2243 50.7927H37.1832C37.7934 50.7927 38.3786 50.5504 38.81 50.119C39.2415 49.6876 39.4839 49.1026 39.4839 48.4925C39.4839 47.8825 39.2415 47.2974 38.81 46.8661C38.3786 46.4347 37.7934 46.1924 37.1832 46.1924H19.234Z" fill="#E4E4E4"/>
<path d="M161.824 30.6729C160.727 30.6713 159.674 31.1054 158.897 31.8796C158.12 32.6538 157.682 33.7048 157.68 34.8016C157.678 35.8985 158.111 36.9513 158.885 37.7288C159.659 38.5063 160.71 38.9448 161.807 38.9479H201.323C201.866 38.9484 202.405 38.8418 202.908 38.6341C203.41 38.4264 203.867 38.1217 204.252 37.7375C204.636 37.3532 204.942 36.8969 205.15 36.3947C205.358 35.8924 205.465 35.3541 205.465 34.8104C205.465 34.2667 205.358 33.7283 205.15 33.2261C204.942 32.7238 204.636 32.2675 204.252 31.8832C203.867 31.499 203.41 31.1943 202.908 30.9866C202.405 30.7789 201.866 30.6723 201.323 30.6729H161.824Z" fill="#E4E4E4"/>
<path d="M170.149 42.1909C174.248 42.1909 177.571 38.8688 177.571 34.7707C177.571 30.6727 174.248 27.3506 170.149 27.3506C166.05 27.3506 162.727 30.6727 162.727 34.7707C162.727 38.8688 166.05 42.1909 170.149 42.1909Z" fill="#CACACA"/>
<path d="M183.616 86.7389L183.616 86.7357C183.732 85.8534 184.168 85.0442 184.841 84.4616C185.514 83.8789 186.377 83.5633 187.267 83.5745C188.158 83.5857 189.013 83.923 189.671 84.5224C190.329 85.1218 190.744 85.9417 190.838 86.8267L190.847 86.9123L190.884 86.99L196.34 98.38L191.588 99.3102L187.812 91.1333L187.672 90.8303L187.338 90.8434C186.81 90.8642 186.284 90.769 185.797 90.5645L185.603 91.0255L185.797 90.5645C185.31 90.36 184.873 90.0512 184.519 89.6599C184.164 89.2685 183.899 88.8042 183.743 88.2995C183.587 87.7949 183.544 87.2622 183.616 86.7389Z" stroke="black"/>
<path d="M223.046 118.963L206.966 111.011L195.619 91.7568L187.688 95.5926L197.981 117.835L223.983 132.843L223.046 118.963Z" fill="#3F3D56"/>
<path d="M186.244 218.713L186.243 232.285L182.112 232.284L179.872 218.713L186.244 218.713Z" stroke="black"/>
<path d="M188.032 237.684L171.733 237.684V237.477C171.733 235.795 172.401 234.182 173.591 232.993C174.781 231.803 176.394 231.135 178.077 231.135H178.077L188.032 231.135L188.032 237.684Z" fill="#2F2E41"/>
<path d="M226.77 214.055L236.493 223.524L233.611 226.482L222.324 218.618L226.77 214.055Z" stroke="black"/>
<path d="M241.61 226.009L230.238 237.683L230.09 237.539C228.885 236.365 228.195 234.761 228.173 233.079C228.151 231.397 228.798 229.775 229.972 228.57L236.918 221.439L241.61 226.009Z" fill="#2F2E41"/>
<path d="M192.992 146.064H189.496C180.407 155.994 173.469 167.695 169.118 180.433L164.941 192.659L179.827 223.819L189.116 223.985L178.499 190.903L189.195 176.722L189.734 205.228L224.16 223.269L231.05 213.093L203.037 197.779L207.807 173.531C207.807 173.531 217.405 165.529 211.816 153.019L192.992 146.064Z" fill="#2F2E41"/>
<path d="M239.007 114.331L224.478 107.97L208.488 115.054C208.488 115.054 203.959 117.629 206.846 124.225L189.496 146.064C189.496 146.064 189.528 146.073 211.333 153.018L231.005 135.698C233.992 133.068 236.285 129.743 237.68 126.016C239.076 122.289 239.531 118.276 239.007 114.331Z" fill="#3F3D56"/>
<path d="M236.568 107.782C242.161 107.782 246.695 103.249 246.695 97.657C246.695 92.0653 242.161 87.5322 236.568 87.5322C230.975 87.5322 226.441 92.0653 226.441 97.657C226.441 103.249 230.975 107.782 236.568 107.782Z" fill="#47A138"/>
<path d="M249.683 84.2211C247.359 82.3308 243.755 81.918 241.355 83.712C237.171 81.516 231.515 82.6615 228.515 86.3126C227.436 87.6265 226.671 89.4039 227.205 91.0181C227.739 92.6323 230.043 93.5813 231.243 92.3771L231.222 92.8732C232.304 93.9559 233.053 95.3248 233.383 96.819C233.713 98.3132 233.61 99.8705 233.085 101.308C232.56 102.745 231.636 104.003 230.42 104.933C229.205 105.863 227.749 106.427 226.225 106.559C229.543 107.899 232.862 109.239 236.18 110.579C237.577 111.143 239.017 111.716 240.523 111.709C242.029 111.701 243.634 110.969 244.219 109.582C244.639 110.869 245.059 112.157 245.479 113.444C247.953 109.51 249.987 105.316 251.546 100.939C252.551 98.1167 253.363 95.1655 253.255 92.172C253.146 89.1786 252.008 86.1115 249.683 84.2211Z" fill="#2F2E41"/>
<path d="M170.149 142.363C174.248 142.363 177.571 139.041 177.571 134.943C177.571 130.845 174.248 127.522 170.149 127.522C166.05 127.522 162.727 130.845 162.727 134.943C162.727 139.041 166.05 142.363 170.149 142.363Z" fill="#CACACA"/>
<path d="M193.239 92.2963C197.338 92.2963 200.661 88.9742 200.661 84.8762C200.661 80.7782 197.338 77.4561 193.239 77.4561C189.14 77.4561 185.817 80.7782 185.817 84.8762C185.817 88.9742 189.14 92.2963 193.239 92.2963Z" fill="#47A138"/>
<path d="M193.924 82.6169L193.925 82.6137C194.041 81.7313 194.476 80.9221 195.149 80.3395C195.822 79.7568 196.685 79.4412 197.576 79.4524C198.466 79.4637 199.321 79.8009 199.979 80.4003C200.637 80.9997 201.052 81.8196 201.146 82.7046L201.155 82.7903L201.192 82.8679L206.648 94.2579L201.896 95.1881L198.12 87.0113L197.98 86.7082L197.646 86.7213C197.118 86.7421 196.592 86.6469 196.105 86.4424L195.912 86.9034L196.105 86.4424C195.618 86.2379 195.182 85.9291 194.827 85.5378C194.472 85.1465 194.207 84.6821 194.051 84.1775C193.895 83.6728 193.852 83.1401 193.924 82.6169Z" stroke="black"/>
<path d="M233.354 114.841L217.274 106.889L205.927 87.6348L197.995 91.4706L208.289 113.713L234.291 128.72L233.354 114.841Z" fill="#3F3D56"/>
<path d="M271.098 238H114.004C113.894 238 113.789 237.957 113.712 237.879C113.635 237.802 113.591 237.697 113.591 237.588C113.591 237.479 113.635 237.374 113.712 237.297C113.789 237.219 113.894 237.176 114.004 237.176H271.098C271.207 237.176 271.312 237.219 271.389 237.297C271.467 237.374 271.51 237.479 271.51 237.588C271.51 237.697 271.467 237.802 271.389 237.879C271.312 237.957 271.207 238 271.098 238Z" fill="#CACACA"/>
</g>
<defs>
<clipPath id="clip0_1658_2895">
<rect width="279" height="238" fill="white"/>
</clipPath>
</defs>
</svg>
