<svg width="439" height="375" viewBox="0 0 439 375" fill="none" xmlns="http://www.w3.org/2000/svg">
<g clip-path="url(#clip0_1658_2955)">
<path d="M371.53 264.22H0V0H371.53V264.22Z" fill="white"/>
<path d="M30.2643 108.52C29.3042 108.52 28.3835 108.901 27.7046 109.581C27.0257 110.261 26.6443 111.183 26.6443 112.144C26.6443 113.105 27.0257 114.027 27.7046 114.706C28.3835 115.386 29.3042 115.768 30.2643 115.768H155.731C156.69 115.766 157.609 115.383 158.286 114.704C158.964 114.025 159.344 113.104 159.344 112.144C159.344 111.184 158.964 110.263 158.286 109.583C157.609 108.904 156.69 108.521 155.731 108.52H30.2643Z" fill="#47A138"/>
<path d="M30.2642 130.266C29.3041 130.264 28.3825 130.643 27.7022 131.322C27.0218 132 26.6385 132.921 26.6365 133.882C26.6345 134.843 27.0139 135.766 27.6914 136.447C28.3688 137.128 29.2888 137.512 30.2489 137.514H155.823C156.783 137.514 157.704 137.132 158.383 136.453C159.062 135.773 159.443 134.851 159.443 133.89C159.443 132.929 159.062 132.007 158.383 131.327C157.704 130.647 156.783 130.266 155.823 130.266H30.2642Z" fill="#47A138"/>
<path d="M30.2642 151.699C29.3041 151.697 28.3825 152.077 27.7022 152.755C27.0218 153.434 26.6385 154.355 26.6365 155.316C26.6345 156.277 27.0139 157.2 27.6914 157.881C28.3688 158.562 29.2888 158.946 30.2489 158.948H58.5068C59.4669 158.948 60.3877 158.566 61.0666 157.886C61.7455 157.206 62.1269 156.285 62.1269 155.323C62.1269 154.362 61.7455 153.44 61.0666 152.761C60.3877 152.081 59.4669 151.699 58.5068 151.699H30.2642Z" fill="#47A138"/>
<path d="M371.53 264.22H0V0H371.53V264.22ZM6.10735 258.105H365.422V6.11436H6.10735V258.105Z" fill="#E5E5E5"/>
<path d="M254.627 206.162C252.901 206.16 251.244 206.844 250.021 208.064C248.799 209.283 248.11 210.939 248.106 212.668C248.103 214.396 248.784 216.055 250.002 217.28C251.22 218.505 252.873 219.196 254.599 219.2H316.777C317.632 219.201 318.48 219.033 319.271 218.706C320.061 218.379 320.78 217.899 321.385 217.293C321.991 216.688 322.471 215.969 322.798 215.178C323.126 214.386 323.295 213.538 323.295 212.681C323.295 211.825 323.126 210.976 322.798 210.185C322.471 209.394 321.991 208.675 321.385 208.069C320.78 207.464 320.061 206.984 319.271 206.656C318.48 206.329 317.632 206.161 316.777 206.162H254.627Z" fill="#E4E4E4"/>
<path d="M254.627 127.215C252.901 127.212 251.244 127.896 250.021 129.116C248.799 130.336 248.11 131.992 248.106 133.72C248.103 135.448 248.784 137.107 250.002 138.332C251.22 139.557 252.873 140.248 254.599 140.253H316.777C317.632 140.254 318.48 140.086 319.271 139.759C320.061 139.432 320.78 138.952 321.385 138.346C321.991 137.741 322.471 137.022 322.798 136.23C323.126 135.439 323.295 134.591 323.295 133.734C323.295 132.877 323.126 132.029 322.798 131.238C322.471 130.446 321.991 129.727 321.385 129.122C320.78 128.517 320.061 128.036 319.271 127.709C318.48 127.382 317.632 127.214 316.777 127.215H254.627Z" fill="#E4E4E4"/>
<path d="M30.2642 209.182C29.7888 209.181 29.3178 209.273 28.8782 209.455C28.4386 209.636 28.039 209.902 27.7022 210.238C27.3653 210.574 27.0978 210.973 26.915 211.412C26.7321 211.851 26.6375 212.322 26.6365 212.798C26.6355 213.274 26.7281 213.746 26.9091 214.186C27.0901 214.626 27.3559 215.026 27.6914 215.363C28.0268 215.7 28.4253 215.968 28.8641 216.151C29.303 216.334 29.7735 216.429 30.2489 216.43H155.823C156.783 216.43 157.704 216.048 158.383 215.369C159.062 214.689 159.443 213.767 159.443 212.806C159.443 211.845 159.062 210.923 158.383 210.243C157.704 209.563 156.783 209.182 155.823 209.182H30.2642Z" fill="#E4E4E4"/>
<path d="M30.2642 230.615C29.7888 230.614 29.3178 230.707 28.8782 230.888C28.4386 231.069 28.039 231.336 27.7022 231.671C27.3653 232.007 27.0978 232.406 26.915 232.845C26.7321 233.285 26.6375 233.756 26.6365 234.232C26.6355 234.708 26.7281 235.179 26.9091 235.619C27.0901 236.059 27.3559 236.459 27.6914 236.797C28.0268 237.134 28.4253 237.402 28.8641 237.585C29.303 237.768 29.7735 237.863 30.2489 237.864H58.5068C59.4669 237.864 60.3877 237.482 61.0666 236.802C61.7455 236.122 62.1269 235.201 62.1269 234.239C62.1269 233.278 61.7455 232.356 61.0666 231.677C60.3877 230.997 59.4669 230.615 58.5068 230.615H30.2642Z" fill="#E4E4E4"/>
<path d="M30.2643 187.438C29.3042 187.438 28.3835 187.819 27.7046 188.499C27.0257 189.179 26.6443 190.1 26.6443 191.062C26.6443 192.023 27.0257 192.945 27.7046 193.624C28.3835 194.304 29.3042 194.686 30.2643 194.686H155.731C156.69 194.684 157.609 194.301 158.286 193.622C158.964 192.942 159.344 192.022 159.344 191.062C159.344 190.102 158.964 189.181 158.286 188.501C157.609 187.822 156.69 187.439 155.731 187.438H30.2643Z" fill="#E4E4E4"/>
<path d="M30.2643 29.6025C29.3042 29.6025 28.3835 29.9844 27.7046 30.664C27.0257 31.3437 26.6443 32.2655 26.6443 33.2267C26.6443 34.1879 27.0257 35.1098 27.7046 35.7894C28.3835 36.4691 29.3042 36.8509 30.2643 36.8509H155.731C156.69 36.8491 157.609 36.4665 158.286 35.787C158.964 35.1075 159.344 34.1867 159.344 33.2267C159.344 32.2667 158.964 31.3459 158.286 30.6665C157.609 29.987 156.69 29.6044 155.731 29.6025H30.2643Z" fill="#E4E4E4"/>
<path d="M30.2642 51.3477C29.7888 51.3467 29.3178 51.4394 28.8782 51.6206C28.4386 51.8018 28.039 52.0679 27.7022 52.4038C27.3653 52.7396 27.0978 53.1386 26.915 53.5779C26.7321 54.0172 26.6375 54.4883 26.6365 54.9642C26.6355 55.4402 26.7281 55.9116 26.9091 56.3517C27.0901 56.7918 27.3559 57.1919 27.6914 57.5291C28.0268 57.8664 28.4253 58.1342 28.8641 58.3173C29.303 58.5003 29.7735 58.595 30.2489 58.596H155.823C156.299 58.596 156.769 58.5023 157.209 58.3202C157.648 58.138 158.047 57.8711 158.383 57.5345C158.719 57.198 158.986 56.7985 159.168 56.3588C159.35 55.9191 159.443 55.4478 159.443 54.9719C159.443 54.4959 159.35 54.0246 159.168 53.5849C158.986 53.1452 158.719 52.7457 158.383 52.4092C158.047 52.0726 157.648 51.8057 157.209 51.6235C156.769 51.4414 156.299 51.3477 155.823 51.3477H30.2642Z" fill="#E4E4E4"/>
<path d="M30.2642 72.7813C29.3041 72.7792 28.3825 73.1591 27.7022 73.8373C27.0218 74.5156 26.6385 75.4366 26.6365 76.3978C26.6345 77.359 27.0139 78.2816 27.6914 78.9627C28.3688 79.6438 29.2888 80.0276 30.2489 80.0296H58.5068C59.4669 80.0296 60.3877 79.6478 61.0666 78.9681C61.7455 78.2885 62.1269 77.3666 62.1269 76.4054C62.1269 75.4442 61.7455 74.5224 61.0666 73.8428C60.3877 73.1631 59.4669 72.7813 58.5068 72.7813H30.2642Z" fill="#E4E4E4"/>
<path d="M254.627 48.3281C252.901 48.3257 251.244 49.0097 250.021 50.2295C248.799 51.4494 248.11 53.1054 248.106 54.8336C248.103 56.5617 248.784 58.2206 250.002 59.4457C251.22 60.6707 252.873 61.3616 254.599 61.3665H316.777C317.632 61.3674 318.48 61.1994 319.271 60.8721C320.061 60.5449 320.78 60.0648 321.385 59.4594C321.991 58.8539 322.471 58.135 322.798 57.3436C323.126 56.5522 323.295 55.704 323.295 54.8473C323.295 53.9907 323.126 53.1424 322.798 52.351C322.471 51.5597 321.991 50.8407 321.385 50.2352C320.78 49.6298 320.061 49.1497 319.271 48.8225C318.48 48.4953 317.632 48.3273 316.777 48.3281H254.627Z" fill="#E4E4E4"/>
<path d="M267.726 66.4775C274.175 66.4775 279.404 61.2431 279.404 54.7861C279.404 48.3291 274.175 43.0947 267.726 43.0947C261.276 43.0947 256.048 48.3291 256.048 54.7861C256.048 61.2431 261.276 66.4775 267.726 66.4775Z" fill="#CACACA"/>
<path d="M288.632 136.629L288.632 136.626C288.824 135.166 289.544 133.827 290.656 132.863C291.768 131.899 293.194 131.376 294.665 131.395C296.135 131.414 297.548 131.972 298.636 132.963C299.723 133.955 300.409 135.312 300.564 136.777L300.573 136.862L300.61 136.94L309.356 155.222L301.294 156.802L295.257 143.714L295.117 143.41L294.784 143.423C293.911 143.458 293.042 143.3 292.237 142.962C291.431 142.623 290.71 142.112 290.124 141.465C289.537 140.817 289.099 140.048 288.842 139.213C288.584 138.377 288.512 137.496 288.632 136.629Z" stroke="black"/>
<path d="M350.958 187.441L325.656 174.911L307.802 144.574L295.322 150.618L311.518 185.664L352.432 209.31L350.958 187.441Z" fill="#3F3D56"/>
<path d="M293.337 344.323L293.336 366.282L286.306 366.282L282.686 344.322L293.337 344.323Z" stroke="black"/>
<path d="M295.864 374.501L270.217 374.5V374.175C270.217 371.525 271.269 368.983 273.141 367.109C275.013 365.235 277.552 364.182 280.2 364.182H280.2L295.864 364.182L295.864 374.501Z" fill="#2F2E41"/>
<path d="M372.523 352.187L367.617 357.229L349.38 344.504L356.811 336.866L372.523 352.187Z" stroke="black"/>
<path d="M380.168 356.108L362.274 374.501L362.041 374.275C360.145 372.425 359.06 369.897 359.025 367.247C358.99 364.597 360.008 362.041 361.855 360.143L372.785 348.908L380.168 356.108Z" fill="#2F2E41"/>
<path d="M303.669 230.143H298.168C283.866 245.788 272.95 264.224 266.103 284.294L259.531 303.558L282.954 352.655L297.569 352.916L280.864 300.791L297.694 278.447L298.542 323.363L352.71 351.788L363.551 335.755L319.473 311.625L326.98 273.42C326.98 273.42 342.082 260.812 333.288 241.1L303.669 230.143Z" fill="#2F2E41"/>
<path d="M376.071 180.143L353.211 170.119L328.05 181.281C328.05 181.281 320.925 185.339 325.467 195.731L298.167 230.142C298.167 230.142 298.218 230.156 332.527 241.099L363.48 213.809C368.18 209.665 371.788 204.425 373.984 198.553C376.18 192.681 376.897 186.358 376.071 180.143Z" fill="#3F3D56"/>
<path d="M372.235 169.824C381.035 169.824 388.17 162.681 388.17 153.871C388.17 145.06 381.035 137.918 372.235 137.918C363.434 137.918 356.3 145.06 356.3 153.871C356.3 162.681 363.434 169.824 372.235 169.824Z" fill="#47A138"/>
<path d="M392.871 132.702C389.214 129.723 383.542 129.073 379.767 131.899C373.182 128.439 364.284 130.244 359.564 135.997C357.865 138.067 356.662 140.868 357.502 143.411C358.343 145.955 361.967 147.45 363.856 145.553L363.823 146.334C365.524 148.04 366.704 150.197 367.223 152.551C367.743 154.906 367.58 157.359 366.754 159.624C365.928 161.889 364.473 163.871 362.561 165.336C360.649 166.802 358.359 167.69 355.959 167.897C361.181 170.009 366.403 172.121 371.624 174.233C373.821 175.121 376.088 176.024 378.458 176.012C380.827 176 383.353 174.847 384.272 172.661C384.934 174.689 385.595 176.718 386.256 178.747C390.148 172.548 393.349 165.94 395.803 159.042C397.383 154.596 398.661 149.946 398.491 145.229C398.32 140.513 396.528 135.68 392.871 132.702Z" fill="#2F2E41"/>
<path d="M267.726 224.311C274.175 224.311 279.404 219.076 279.404 212.619C279.404 206.162 274.175 200.928 267.726 200.928C261.276 200.928 256.048 206.162 256.048 212.619C256.048 219.076 261.276 224.311 267.726 224.311Z" fill="#CACACA"/>
<path d="M304.057 145.426C310.507 145.426 315.735 140.191 315.735 133.734C315.735 127.277 310.507 122.043 304.057 122.043C297.608 122.043 292.379 127.277 292.379 133.734C292.379 140.191 297.608 145.426 304.057 145.426Z" fill="#47A138"/>
<path d="M304.851 130.133L304.852 130.13C305.043 128.67 305.763 127.331 306.875 126.367C307.987 125.403 309.414 124.88 310.884 124.899C312.355 124.917 313.768 125.475 314.855 126.467C315.942 127.459 316.629 128.816 316.783 130.281L316.793 130.366L316.83 130.444L325.575 148.726L317.514 150.306L311.477 137.218L311.337 136.914L311.003 136.927C310.131 136.962 309.261 136.804 308.456 136.466C307.651 136.127 306.93 135.616 306.343 134.969C305.757 134.321 305.319 133.552 305.061 132.717C304.803 131.881 304.732 130.999 304.851 130.133Z" stroke="black"/>
<path d="M367.178 180.947L341.875 168.417L324.021 138.08L311.541 144.124L327.737 179.17L368.652 202.816L367.178 180.947Z" fill="#3F3D56"/>
<path d="M426.566 375H179.382C179.21 375 179.045 374.932 178.923 374.81C178.802 374.688 178.733 374.523 178.733 374.351C178.733 374.178 178.802 374.013 178.923 373.891C179.045 373.77 179.21 373.701 179.382 373.701H426.566C426.738 373.701 426.903 373.77 427.025 373.891C427.146 374.013 427.215 374.178 427.215 374.351C427.215 374.523 427.146 374.688 427.025 374.81C426.903 374.932 426.738 375 426.566 375Z" fill="#CACACA"/>
</g>
<defs>
<clipPath id="clip0_1658_2955">
<rect width="439" height="375" fill="white"/>
</clipPath>
</defs>
</svg>
