<svg width="312" height="195" viewBox="0 0 312 195" fill="none" xmlns="http://www.w3.org/2000/svg">
<g opacity="0.3">
<rect width="18.5568" height="18.5568" transform="matrix(1.19249e-08 -1 -1 -1.19249e-08 62.1768 76.0449)" fill="#D9D9D9"/>
<rect width="18.5568" height="18.5568" transform="matrix(1.19249e-08 -1 -1 -1.19249e-08 62.1768 57.4881)" fill="#D9D9D9" fill-opacity="0.5"/>
<rect width="18.5568" height="18.5568" transform="matrix(1.19249e-08 -1 -1 -1.19249e-08 43.6199 57.4881)" fill="#D9D9D9" fill-opacity="0.9"/>
<rect width="18.5568" height="18.5568" transform="matrix(1.19249e-08 -1 -1 -1.19249e-08 62.1768 38.9312)" fill="#D9D9D9" fill-opacity="0.9"/>
<rect width="18.5568" height="18.5568" transform="matrix(1.19249e-08 -1 -1 -1.19249e-08 62.1768 20.3746)" fill="#D9D9D9" fill-opacity="0.5"/>
<rect width="18.5568" height="18.5568" transform="matrix(1.19249e-08 -1 -1 -1.19249e-08 80.7334 20.3746)" fill="#D9D9D9" fill-opacity="0.9"/>
<rect width="18.5568" height="18.5568" transform="matrix(1.19249e-08 -1 -1 -1.19249e-08 26.1084 76.0449)" fill="#D9D9D9" fill-opacity="0.9"/>
</g>
<g opacity="0.3">
<rect width="18.5568" height="18.5568" transform="matrix(1.19249e-08 -1 -1 -1.19249e-08 293.443 194.51)" fill="#D9D9D9"/>
<rect width="18.5568" height="18.5568" transform="matrix(1.19249e-08 -1 -1 -1.19249e-08 293.443 175.953)" fill="#D9D9D9" fill-opacity="0.5"/>
<rect width="18.5568" height="18.5568" transform="matrix(1.19249e-08 -1 -1 -1.19249e-08 274.886 175.953)" fill="#D9D9D9" fill-opacity="0.9"/>
<rect width="18.5568" height="18.5568" transform="matrix(1.19249e-08 -1 -1 -1.19249e-08 293.443 157.396)" fill="#D9D9D9" fill-opacity="0.9"/>
<rect width="18.5568" height="18.5568" transform="matrix(1.19249e-08 -1 -1 -1.19249e-08 293.443 138.84)" fill="#D9D9D9" fill-opacity="0.5"/>
<rect width="18.5568" height="18.5568" transform="matrix(1.19249e-08 -1 -1 -1.19249e-08 312 138.84)" fill="#D9D9D9" fill-opacity="0.9"/>
<rect width="18.5568" height="18.5568" transform="matrix(1.19249e-08 -1 -1 -1.19249e-08 257.375 194.51)" fill="#D9D9D9" fill-opacity="0.9"/>
</g>
<path d="M162.887 157.477L172.552 154.885C172.295 157.776 171.665 160.468 170.501 162.693C167.625 168.19 164.094 170.97 160.342 171.895C156.576 172.823 152.485 171.907 148.45 169.796C144.415 167.685 141.33 164.846 139.945 161.223C138.565 157.615 138.835 153.128 141.711 147.631C143.124 144.93 145.548 142.484 148.428 140.331C151.303 138.181 154.605 136.342 157.737 134.846C160.867 133.35 163.818 132.201 165.986 131.425C167.07 131.037 167.958 130.743 168.573 130.547C168.764 130.486 168.929 130.434 169.065 130.392C169.066 130.394 169.066 130.396 169.067 130.397C169.164 130.704 169.303 131.154 169.471 131.727C169.806 132.873 170.257 134.508 170.714 136.46C171.613 140.296 172.534 145.341 172.673 150.31L162.495 156.568L162.887 157.477Z" stroke="#FF5031"/>
<mask id="path-16-inside-1_554_2825" fill="white">
<path d="M160.779 156.403L160.491 156.953C157.108 163.339 153.415 167.77 149.456 170.179C149.399 170.215 149.341 170.247 149.283 170.283L149.122 170.014L148.97 169.754C153.308 167.185 156.948 162.251 159.9 156.682C159.997 156.504 160.095 156.323 160.188 156.139C161.417 153.77 162.523 151.303 163.507 148.858C163.585 148.67 163.661 148.477 163.738 148.285C165.019 145.051 166.088 141.88 166.944 139.088C167.006 138.891 167.065 138.692 167.122 138.496C168.552 133.764 169.346 130.209 169.516 129.42C169.538 129.324 169.549 129.27 169.552 129.258L169.849 129.32L169.853 129.318L170.154 129.382C170.151 129.394 170.116 129.574 170.041 129.903C169.768 131.135 168.992 134.463 167.714 138.719C167.655 138.911 167.597 139.109 167.535 139.306C166.842 141.573 166.014 144.078 165.048 146.657C164.806 147.305 164.56 147.94 164.311 148.564C164.237 148.758 164.16 148.95 164.083 149.139C163.02 151.782 161.918 154.203 160.779 156.403Z"/>
</mask>
<path d="M160.779 156.403L160.491 156.953C157.108 163.339 153.415 167.77 149.456 170.179C149.399 170.215 149.341 170.247 149.283 170.283L149.122 170.014L148.97 169.754C153.308 167.185 156.948 162.251 159.9 156.682C159.997 156.504 160.095 156.323 160.188 156.139C161.417 153.77 162.523 151.303 163.507 148.858C163.585 148.67 163.661 148.477 163.738 148.285C165.019 145.051 166.088 141.88 166.944 139.088C167.006 138.891 167.065 138.692 167.122 138.496C168.552 133.764 169.346 130.209 169.516 129.42C169.538 129.324 169.549 129.27 169.552 129.258L169.849 129.32L169.853 129.318L170.154 129.382C170.151 129.394 170.116 129.574 170.041 129.903C169.768 131.135 168.992 134.463 167.714 138.719C167.655 138.911 167.597 139.109 167.535 139.306C166.842 141.573 166.014 144.078 165.048 146.657C164.806 147.305 164.56 147.94 164.311 148.564C164.237 148.758 164.16 148.95 164.083 149.139C163.02 151.782 161.918 154.203 160.779 156.403Z" fill="white"/>
<path d="M160.779 156.403L161.665 156.866L161.667 156.863L160.779 156.403ZM160.491 156.953L161.375 157.422L161.377 157.417L160.491 156.953ZM149.456 170.179L148.936 169.325L148.929 169.329L148.921 169.334L149.456 170.179ZM149.283 170.283L148.427 170.799L148.954 171.675L149.818 171.128L149.283 170.283ZM149.122 170.014L148.259 170.519L148.265 170.53L149.122 170.014ZM148.97 169.754L148.46 168.894L147.605 169.4L148.106 170.259L148.97 169.754ZM159.9 156.682L159.021 156.206L159.016 156.214L159.9 156.682ZM160.188 156.139L159.3 155.678L159.295 155.688L160.188 156.139ZM163.507 148.858L162.582 148.477L162.579 148.485L163.507 148.858ZM163.738 148.285L164.667 148.654L164.667 148.653L163.738 148.285ZM166.944 139.088L165.99 138.79L165.988 138.795L166.944 139.088ZM167.122 138.496L166.165 138.207L166.162 138.216L167.122 138.496ZM169.516 129.42L168.542 129.192L168.54 129.2L168.538 129.209L169.516 129.42ZM169.552 129.258L169.755 128.279L168.807 128.081L168.58 129.023L169.552 129.258ZM169.849 129.32L169.646 130.299L169.901 130.352L170.149 130.274L169.849 129.32ZM169.853 129.318L170.06 128.34L169.804 128.286L169.554 128.364L169.853 129.318ZM170.154 129.382L171.126 129.616L171.368 128.616L170.36 128.403L170.154 129.382ZM170.041 129.903L169.066 129.681L169.065 129.686L170.041 129.903ZM167.714 138.719L168.67 139.012L168.672 139.007L167.714 138.719ZM167.535 139.306L166.58 139.009L166.579 139.014L167.535 139.306ZM165.048 146.657L164.111 146.306L164.111 146.307L165.048 146.657ZM164.311 148.564L163.382 148.192L163.379 148.2L163.376 148.208L164.311 148.564ZM164.083 149.139L163.158 148.757L163.155 148.766L164.083 149.139ZM159.893 155.939L159.605 156.49L161.377 157.417L161.665 156.866L159.893 155.939ZM159.607 156.485C156.266 162.794 152.678 167.048 148.936 169.325L149.976 171.033C154.152 168.492 157.951 163.884 161.375 157.422L159.607 156.485ZM148.921 169.334C148.908 169.342 148.893 169.351 148.862 169.369C148.835 169.385 148.793 169.41 148.749 169.438L149.818 171.128C149.831 171.12 149.847 171.111 149.878 171.092C149.904 171.077 149.947 171.052 149.991 171.024L148.921 169.334ZM150.14 169.767L149.979 169.499L148.265 170.53L148.427 170.799L150.14 169.767ZM149.985 169.51L149.833 169.249L148.106 170.259L148.259 170.519L149.985 169.51ZM149.479 170.615C154.058 167.903 157.806 162.768 160.783 157.151L159.016 156.214C156.09 161.734 152.557 166.468 148.46 168.894L149.479 170.615ZM160.779 157.159C160.875 156.983 160.98 156.789 161.081 156.589L159.295 155.688C159.21 155.857 159.119 156.025 159.021 156.206L160.779 157.159ZM161.075 156.599C162.321 154.197 163.441 151.7 164.435 149.232L162.579 148.485C161.605 150.906 160.512 153.343 159.3 155.678L161.075 156.599ZM164.431 149.24C164.512 149.044 164.591 148.845 164.667 148.654L162.808 147.916C162.731 148.109 162.657 148.296 162.582 148.477L164.431 149.24ZM164.667 148.653C165.961 145.39 167.038 142.192 167.9 139.381L165.988 138.795C165.138 141.568 164.078 144.713 162.808 147.916L164.667 148.653ZM167.899 139.385C167.963 139.18 168.024 138.974 168.082 138.777L166.162 138.216C166.105 138.41 166.048 138.602 165.99 138.79L167.899 139.385ZM168.079 138.786C169.519 134.021 170.319 130.438 170.493 129.63L168.538 129.209C168.372 129.98 167.585 133.507 166.165 138.207L168.079 138.786ZM170.49 129.647C170.502 129.593 170.512 129.55 170.518 129.519C170.522 129.504 170.524 129.491 170.526 129.484C170.526 129.482 170.527 129.48 170.527 129.479C170.527 129.478 170.527 129.478 170.527 129.478C170.527 129.478 170.527 129.478 170.527 129.478C170.527 129.479 170.527 129.48 170.527 129.481C170.526 129.482 170.525 129.486 170.524 129.492L168.58 129.023C168.577 129.036 168.574 129.047 168.573 129.051C168.572 129.056 168.571 129.062 168.57 129.066C168.568 129.075 168.566 129.084 168.564 129.096C168.559 129.118 168.552 129.15 168.542 129.192L170.49 129.647ZM169.348 130.237L169.646 130.299L170.053 128.341L169.755 128.279L169.348 130.237ZM170.149 130.274L170.153 130.272L169.554 128.364L169.55 128.366L170.149 130.274ZM169.647 130.297L169.947 130.36L170.36 128.403L170.06 128.34L169.647 130.297ZM169.182 129.147C169.178 129.164 169.174 129.179 169.174 129.179C169.173 129.184 169.172 129.189 169.172 129.192C169.17 129.199 169.168 129.211 169.166 129.221C169.161 129.244 169.155 129.276 169.146 129.317C169.128 129.4 169.102 129.522 169.066 129.681L171.016 130.125C171.055 129.955 171.083 129.822 171.103 129.73C171.113 129.684 171.12 129.648 171.125 129.623C171.128 129.61 171.129 129.602 171.131 129.596C171.134 129.579 171.131 129.597 171.126 129.616L169.182 129.147ZM169.065 129.686C168.795 130.902 168.026 134.205 166.756 138.432L168.672 139.007C169.959 134.722 170.74 131.369 171.017 130.119L169.065 129.686ZM166.757 138.427C166.695 138.633 166.641 138.813 166.58 139.009L168.49 139.604C168.552 139.406 168.616 139.189 168.67 139.012L166.757 138.427ZM166.579 139.014C165.891 141.265 165.069 143.751 164.111 146.306L165.984 147.008C166.96 144.406 167.794 141.881 168.491 139.599L166.579 139.014ZM164.111 146.307C163.872 146.948 163.629 147.576 163.382 148.192L165.239 148.935C165.492 148.305 165.74 147.662 165.985 147.006L164.111 146.307ZM163.376 148.208C163.306 148.393 163.232 148.577 163.158 148.757L165.007 149.52C165.088 149.323 165.168 149.122 165.245 148.919L163.376 148.208ZM163.155 148.766C162.102 151.383 161.014 153.775 159.891 155.943L161.667 156.863C162.823 154.631 163.937 152.18 165.01 149.512L163.155 148.766Z" fill="#FF5031" mask="url(#path-16-inside-1_554_2825)"/>
<mask id="path-18-inside-2_554_2825" fill="white">
<path d="M167.714 138.719C167.518 138.648 167.32 138.576 167.122 138.496C166.583 138.282 166.056 138.04 165.542 137.771C163.352 136.629 161.445 135.009 159.964 133.032C159.774 133.117 159.583 133.202 159.389 133.287C160.936 135.389 162.944 137.109 165.257 138.316C165.806 138.603 166.369 138.861 166.944 139.088C167.14 139.166 167.338 139.238 167.535 139.307C169.156 139.879 170.855 140.202 172.573 140.265C172.535 140.054 172.497 139.846 172.461 139.643C170.842 139.571 169.242 139.259 167.714 138.719Z"/>
</mask>
<path d="M167.714 138.719C167.518 138.648 167.32 138.576 167.122 138.496C166.583 138.282 166.056 138.04 165.542 137.771C163.352 136.629 161.445 135.009 159.964 133.032C159.774 133.117 159.583 133.202 159.389 133.287C160.936 135.389 162.944 137.109 165.257 138.316C165.806 138.603 166.369 138.861 166.944 139.088C167.14 139.166 167.338 139.238 167.535 139.307C169.156 139.879 170.855 140.202 172.573 140.265C172.535 140.054 172.497 139.846 172.461 139.643C170.842 139.571 169.242 139.259 167.714 138.719Z" fill="white"/>
<path d="M167.122 138.496L167.494 137.568L167.492 137.568L167.122 138.496ZM165.542 137.771L166.006 136.885L166.005 136.884L165.542 137.771ZM159.964 133.032L160.764 132.433L160.286 131.795L159.557 132.119L159.964 133.032ZM159.389 133.287L158.985 132.373L157.845 132.877L158.584 133.88L159.389 133.287ZM165.257 138.316L165.72 137.43L165.72 137.43L165.257 138.316ZM166.944 139.088L167.315 138.159L167.312 138.158L166.944 139.088ZM167.535 139.307L167.868 138.364L167.863 138.362L167.535 139.307ZM172.573 140.265L172.537 141.264L173.782 141.31L173.557 140.084L172.573 140.265ZM172.461 139.643L173.445 139.468L173.305 138.68L172.506 138.644L172.461 139.643ZM168.055 137.779C167.859 137.708 167.675 137.641 167.494 137.568L166.75 139.425C166.965 139.511 167.177 139.588 167.372 139.659L168.055 137.779ZM167.492 137.568C166.985 137.365 166.489 137.138 166.006 136.885L165.079 138.657C165.623 138.942 166.181 139.198 166.751 139.425L167.492 137.568ZM166.005 136.884C163.947 135.811 162.156 134.29 160.764 132.433L159.164 133.632C160.735 135.729 162.757 137.446 165.08 138.658L166.005 136.884ZM159.557 132.119C159.367 132.203 159.178 132.288 158.985 132.373L159.794 134.202C159.989 134.116 160.18 134.03 160.37 133.946L159.557 132.119ZM158.584 133.88C160.222 136.105 162.346 137.925 164.794 139.203L165.72 137.43C163.541 136.293 161.651 134.673 160.194 132.695L158.584 133.88ZM164.794 139.202C165.373 139.506 165.969 139.778 166.577 140.018L167.312 138.158C166.769 137.943 166.238 137.7 165.72 137.43L164.794 139.202ZM166.574 140.017C166.787 140.102 167 140.179 167.207 140.251L167.863 138.362C167.676 138.297 167.492 138.23 167.315 138.159L166.574 140.017ZM167.202 140.249C168.919 140.856 170.717 141.198 172.537 141.264L172.61 139.266C170.993 139.207 169.394 138.903 167.868 138.364L167.202 140.249ZM173.557 140.084C173.518 139.875 173.481 139.669 173.445 139.468L171.476 139.819C171.513 140.024 171.551 140.232 171.59 140.445L173.557 140.084ZM172.506 138.644C170.985 138.576 169.482 138.284 168.047 137.776L167.38 139.662C169.002 140.235 170.698 140.565 172.416 140.642L172.506 138.644Z" fill="#FF5031" mask="url(#path-18-inside-2_554_2825)"/>
<mask id="path-20-inside-3_554_2825" fill="white">
<path d="M164.311 148.564C164.117 148.476 163.926 148.383 163.738 148.285C163.679 148.257 163.619 148.226 163.562 148.196C161.19 146.955 159.153 145.159 157.625 142.961C156.097 140.763 155.123 138.228 154.787 135.572C154.594 135.676 154.4 135.779 154.208 135.887C154.59 138.596 155.612 141.175 157.189 143.41C158.766 145.646 160.852 147.473 163.276 148.741C163.353 148.781 163.429 148.821 163.507 148.858C163.699 148.956 163.89 149.049 164.083 149.139C167.072 150.513 170.394 150.997 173.651 150.533C173.648 150.326 173.645 150.12 173.639 149.912C170.465 150.38 167.223 149.911 164.311 148.564Z"/>
</mask>
<path d="M164.311 148.564C164.117 148.476 163.926 148.383 163.738 148.285C163.679 148.257 163.619 148.226 163.562 148.196C161.19 146.955 159.153 145.159 157.625 142.961C156.097 140.763 155.123 138.228 154.787 135.572C154.594 135.676 154.4 135.779 154.208 135.887C154.59 138.596 155.612 141.175 157.189 143.41C158.766 145.646 160.852 147.473 163.276 148.741C163.353 148.781 163.429 148.821 163.507 148.858C163.699 148.956 163.89 149.049 164.083 149.139C167.072 150.513 170.394 150.997 173.651 150.533C173.648 150.326 173.645 150.12 173.639 149.912C170.465 150.38 167.223 149.911 164.311 148.564Z" fill="white"/>
<path d="M163.738 148.285L164.201 147.398L164.18 147.387L164.158 147.377L163.738 148.285ZM163.562 148.196L164.025 147.31L164.025 147.31L163.562 148.196ZM154.787 135.572L155.779 135.446L155.596 134.002L154.314 134.691L154.787 135.572ZM154.208 135.887L153.718 135.016L153.123 135.351L153.218 136.027L154.208 135.887ZM163.276 148.741L162.813 149.627L162.813 149.627L163.276 148.741ZM163.507 148.858L163.958 147.966L163.948 147.961L163.938 147.956L163.507 148.858ZM164.083 149.139L163.658 150.044L163.665 150.047L164.083 149.139ZM173.651 150.533L173.792 151.523L174.664 151.399L174.651 150.518L173.651 150.533ZM173.639 149.912L174.639 149.884L174.607 148.758L173.493 148.922L173.639 149.912ZM164.722 147.652C164.546 147.573 164.372 147.488 164.201 147.398L163.274 149.171C163.479 149.278 163.688 149.379 163.899 149.475L164.722 147.652ZM164.158 147.377C164.125 147.362 164.086 147.342 164.025 147.31L163.098 149.082C163.152 149.11 163.233 149.153 163.317 149.192L164.158 147.377ZM164.025 147.31C161.796 146.144 159.882 144.456 158.446 142.39L156.804 143.532C158.424 145.862 160.583 147.766 163.098 149.082L164.025 147.31ZM158.446 142.39C157.01 140.324 156.095 137.942 155.779 135.446L153.795 135.698C154.152 138.513 155.184 141.201 156.804 143.532L158.446 142.39ZM154.314 134.691C154.122 134.794 153.92 134.902 153.718 135.016L154.699 136.759C154.881 136.657 155.065 136.557 155.26 136.453L154.314 134.691ZM153.218 136.027C153.622 138.893 154.703 141.622 156.372 143.987L158.006 142.834C156.521 140.728 155.558 138.299 155.199 135.748L153.218 136.027ZM156.372 143.987C158.04 146.352 160.248 148.286 162.813 149.627L163.74 147.855C161.457 146.661 159.491 144.939 158.006 142.834L156.372 143.987ZM162.813 149.627C162.887 149.666 162.979 149.714 163.075 149.761L163.938 147.956C163.879 147.928 163.819 147.897 163.74 147.855L162.813 149.627ZM163.056 149.751C163.257 149.853 163.457 149.95 163.658 150.044L164.507 148.233C164.324 148.147 164.141 148.059 163.958 147.966L163.056 149.751ZM163.665 150.047C166.829 151.502 170.345 152.014 173.792 151.523L173.51 149.543C170.443 149.98 167.315 149.524 164.5 148.23L163.665 150.047ZM174.651 150.518C174.648 150.312 174.645 150.099 174.639 149.884L172.64 149.94C172.645 150.14 172.648 150.34 172.651 150.548L174.651 150.518ZM173.493 148.922C170.511 149.362 167.466 148.922 164.731 147.656L163.891 149.471C166.979 150.9 170.418 151.397 173.785 150.901L173.493 148.922Z" fill="#FF5031" mask="url(#path-20-inside-3_554_2825)"/>
<mask id="path-22-inside-4_554_2825" fill="white">
<path d="M160.779 156.403C160.58 156.319 160.383 156.23 160.188 156.139C159.979 156.04 159.772 155.938 159.567 155.831C156.382 154.16 153.823 151.502 152.275 148.255C150.727 145.008 150.272 141.347 150.978 137.82C150.74 137.977 150.503 138.131 150.27 138.29C149.681 141.869 150.234 145.543 151.852 148.79C153.47 152.037 156.069 154.692 159.282 156.377C159.486 156.484 159.692 156.588 159.9 156.682C160.096 156.778 160.293 156.867 160.491 156.953C164.504 158.669 169.019 158.795 173.122 157.307C173.17 157.075 173.209 156.842 173.249 156.606C169.224 158.162 164.751 158.089 160.779 156.403Z"/>
</mask>
<path d="M160.779 156.403C160.58 156.319 160.383 156.23 160.188 156.139C159.979 156.04 159.772 155.938 159.567 155.831C156.382 154.16 153.823 151.502 152.275 148.255C150.727 145.008 150.272 141.347 150.978 137.82C150.74 137.977 150.503 138.131 150.27 138.29C149.681 141.869 150.234 145.543 151.852 148.79C153.47 152.037 156.069 154.692 159.282 156.377C159.486 156.484 159.692 156.588 159.9 156.682C160.096 156.778 160.293 156.867 160.491 156.953C164.504 158.669 169.019 158.795 173.122 157.307C173.17 157.075 173.209 156.842 173.249 156.606C169.224 158.162 164.751 158.089 160.779 156.403Z" fill="white"/>
<path d="M160.188 156.139L159.76 157.042L159.763 157.044L160.188 156.139ZM159.567 155.831L159.103 156.717L159.104 156.717L159.567 155.831ZM150.978 137.82L151.959 138.016L152.429 135.669L150.429 136.984L150.978 137.82ZM150.27 138.29L149.705 137.465L149.353 137.707L149.283 138.128L150.27 138.29ZM159.282 156.377L158.817 157.262L158.818 157.263L159.282 156.377ZM159.9 156.682L160.338 155.784L160.327 155.778L160.315 155.773L159.9 156.682ZM160.491 156.953L160.092 157.87L160.098 157.873L160.491 156.953ZM173.122 157.307L173.463 158.247L173.987 158.056L174.101 157.511L173.122 157.307ZM173.249 156.606L174.235 156.773L174.53 155.038L172.889 155.673L173.249 156.606ZM161.165 155.48C160.983 155.404 160.8 155.321 160.613 155.233L159.763 157.044C159.966 157.139 160.176 157.234 160.393 157.325L161.165 155.48ZM160.616 155.235C160.414 155.139 160.22 155.044 160.031 154.945L159.104 156.717C159.324 156.832 159.544 156.94 159.76 157.042L160.616 155.235ZM160.032 154.946C157.038 153.375 154.633 150.877 153.178 147.825L151.372 148.686C153.014 152.127 155.726 154.945 159.103 156.717L160.032 154.946ZM153.178 147.825C151.722 144.773 151.295 141.332 151.959 138.016L149.998 137.624C149.249 141.363 149.731 145.244 151.372 148.686L153.178 147.825ZM150.429 136.984C150.197 137.137 149.948 137.299 149.705 137.465L150.835 139.115C151.058 138.963 151.283 138.816 151.527 138.656L150.429 136.984ZM149.283 138.128C148.66 141.914 149.245 145.801 150.957 149.236L152.747 148.344C151.223 145.286 150.702 141.825 151.257 138.453L149.283 138.128ZM150.957 149.236C152.668 152.671 155.419 155.479 158.817 157.262L159.746 155.491C156.72 153.904 154.271 151.403 152.747 148.344L150.957 149.236ZM158.818 157.263C159.029 157.373 159.253 157.487 159.485 157.592L160.315 155.773C160.131 155.689 159.943 155.594 159.745 155.49L158.818 157.263ZM159.461 157.581C159.675 157.685 159.885 157.78 160.092 157.87L160.89 156.037C160.701 155.954 160.518 155.871 160.338 155.784L159.461 157.581ZM160.098 157.873C164.344 159.688 169.122 159.822 173.463 158.247L172.781 156.367C168.917 157.769 164.664 157.65 160.884 156.034L160.098 157.873ZM174.101 157.511C174.154 157.257 174.196 157.002 174.235 156.773L172.263 156.438C172.222 156.681 172.187 156.893 172.143 157.103L174.101 157.511ZM172.889 155.673C169.106 157.136 164.903 157.067 161.17 155.482L160.388 157.323C164.6 159.111 169.342 159.189 173.61 157.538L172.889 155.673Z" fill="#FF5031" mask="url(#path-22-inside-4_554_2825)"/>
<path d="M41.2509 131.366C41.2515 131.365 41.2521 131.363 41.2526 131.361C41.3889 131.403 41.5536 131.455 41.7443 131.516C42.36 131.712 43.2476 132.006 44.3314 132.394C46.4999 133.17 49.4504 134.319 52.5809 135.815C55.7129 137.312 59.0143 139.15 61.8898 141.3C64.7695 143.453 67.1933 145.899 68.6066 148.6C71.4827 154.097 71.7525 158.584 70.3728 162.192C68.9877 165.815 65.9023 168.654 61.8674 170.765C57.8325 172.876 53.7414 173.792 49.9754 172.864C46.2242 171.939 42.6927 169.159 39.8167 163.662C38.6524 161.437 38.0224 158.745 37.7656 155.854L47.4308 158.446L47.8222 157.537L37.6442 151.279C37.7835 146.31 38.705 141.265 39.6035 137.429C40.0608 135.477 40.5112 133.842 40.847 132.696C41.0148 132.123 41.154 131.673 41.2509 131.366Z" stroke="#FF5031"/>
<path d="M40.2693 130.84C40.2717 130.85 40.2742 130.861 40.2766 130.872C40.5498 132.104 41.3253 135.432 42.6038 139.689M40.2693 130.84L46.007 149.533C45.7574 148.91 45.5118 148.274 45.27 147.626C44.3031 145.048 43.4753 142.543 42.7825 140.276C42.7445 140.154 42.7076 140.031 42.671 139.91C42.6485 139.836 42.6261 139.762 42.6038 139.689M40.2693 130.84L40.3835 130.816C40.3857 130.826 40.388 130.836 40.3903 130.846C40.3903 130.846 40.3904 130.847 40.3904 130.847C40.6641 132.076 41.4362 135.372 42.7165 139.608M40.2693 130.84L42.7165 139.608M42.6038 139.689L42.7288 139.65M42.6038 139.689L42.729 139.651C42.7823 139.833 42.8376 140.019 42.8955 140.205C42.8988 140.216 42.9022 140.227 42.9055 140.237C42.9056 140.238 42.9056 140.238 42.9057 140.238C43.5982 142.494 44.4287 144.995 45.3979 147.578C45.3979 147.578 45.3979 147.578 45.398 147.578C45.6292 148.194 45.8682 148.815 46.1152 149.438L46.1153 149.438L46.1159 149.44C46.1215 149.454 46.1272 149.468 46.1328 149.482C46.1331 149.483 46.1334 149.484 46.1337 149.485C46.2038 149.661 46.2751 149.84 46.3478 150.016C46.353 150.029 46.3582 150.042 46.3634 150.055C46.3635 150.056 46.3637 150.056 46.3638 150.056C47.3434 152.488 48.4451 154.943 49.6683 157.304L49.5386 157.372L42.7288 139.65M42.7288 139.65C42.7247 139.636 42.7206 139.622 42.7165 139.608M42.7288 139.65L42.7165 139.608M40.6536 130.25C40.6539 130.252 40.6541 130.253 40.6544 130.254L40.7659 130.227M40.6536 130.25L49.9826 157.142C49.9824 157.142 49.9822 157.141 49.982 157.141C48.8512 154.957 47.7567 152.551 46.699 149.922L46.699 149.922L46.6973 149.917C46.6922 149.905 46.6872 149.893 46.6822 149.881L46.8108 149.828M40.6536 130.25L40.7659 130.227M40.6536 130.25L46.58 149.254M40.7659 130.227L40.7996 130.389L40.8019 130.389M40.7659 130.227C40.7667 130.231 40.7683 130.238 40.7706 130.249C40.7761 130.275 40.786 130.321 40.8019 130.389M40.8019 130.389L40.7996 130.389L40.8677 130.717L40.7592 130.739C40.7608 130.746 40.7625 130.754 40.7642 130.761L40.7648 130.764L40.7648 130.764C41.0351 131.984 41.8035 135.281 43.07 139.502L43.1957 139.466M40.8019 130.389C40.9719 131.179 41.7654 134.733 43.1957 139.466M43.1957 139.466L43.0703 139.504C43.0743 139.517 43.0783 139.53 43.0823 139.544C43.1057 139.62 43.1284 139.695 43.1509 139.77C43.1836 139.878 43.216 139.986 43.2499 140.095L43.3732 140.057M43.1957 139.466C43.253 139.661 43.3117 139.86 43.3732 140.057M43.3732 140.057L43.2501 140.095C43.2533 140.106 43.2566 140.116 43.2599 140.127L43.2607 140.13L43.2607 140.13C43.951 142.389 44.7756 144.884 45.7381 147.451L45.7384 147.451C45.9733 148.081 46.2118 148.698 46.4539 149.304C46.454 149.304 46.454 149.304 46.454 149.304C46.4597 149.318 46.4654 149.333 46.4712 149.347L46.4745 149.355L46.4744 149.355C46.5415 149.532 46.611 149.707 46.6817 149.88L46.8108 149.828M43.3732 140.057C44.2297 142.849 45.2983 146.021 46.58 149.254M46.8108 149.828C46.733 149.639 46.6565 149.447 46.58 149.254M46.8108 149.828C47.7945 152.272 48.9011 154.739 50.1298 157.108L46.58 149.254M40.1669 130.365C40.1676 130.369 40.1684 130.373 40.1694 130.378C40.1775 130.417 40.1942 130.499 40.2207 130.621L40.1669 130.365Z" fill="white" stroke="#FF5031"/>
<mask id="path-26-inside-5_554_2825" fill="white">
<path d="M37.8569 140.613C37.8207 140.816 37.7832 141.023 37.7444 141.234C39.4627 141.171 41.1615 140.848 42.7827 140.276C42.9797 140.207 43.178 140.135 43.3734 140.057C43.949 139.83 44.5122 139.572 45.0606 139.285C47.3742 138.078 49.3812 136.358 50.9285 134.257C50.7343 134.171 50.5441 134.086 50.354 134.002C48.8723 135.978 46.9659 137.598 44.7753 138.74C44.2616 139.009 43.7344 139.251 43.1959 139.466C42.9978 139.545 42.7995 139.617 42.604 139.688C41.0758 140.229 39.4761 140.54 37.8569 140.613Z"/>
</mask>
<path d="M37.8569 140.613C37.8207 140.816 37.7832 141.023 37.7444 141.234C39.4627 141.171 41.1615 140.848 42.7827 140.276C42.9797 140.207 43.178 140.135 43.3734 140.057C43.949 139.83 44.5122 139.572 45.0606 139.285C47.3742 138.078 49.3812 136.358 50.9285 134.257C50.7343 134.171 50.5441 134.086 50.354 134.002C48.8723 135.978 46.9659 137.598 44.7753 138.74C44.2616 139.009 43.7344 139.251 43.1959 139.466C42.9978 139.545 42.7995 139.617 42.604 139.688C41.0758 140.229 39.4761 140.54 37.8569 140.613Z" fill="white"/>
<path d="M37.7444 141.234L36.7608 141.053L36.5359 142.279L37.7808 142.233L37.7444 141.234ZM42.7827 140.276L42.455 139.331L42.4497 139.333L42.7827 140.276ZM43.3734 140.057L43.0061 139.127L43.003 139.128L43.3734 140.057ZM45.0606 139.285L44.5979 138.399L44.5973 138.399L45.0606 139.285ZM50.9285 134.257L51.7338 134.85L52.4727 133.846L51.3329 133.342L50.9285 134.257ZM50.354 134.002L50.7605 133.088L50.032 132.764L49.5538 133.402L50.354 134.002ZM44.7753 138.74L44.3129 137.853L44.3119 137.854L44.7753 138.74ZM43.1959 139.466L42.8256 138.537L42.8241 138.537L43.1959 139.466ZM42.604 139.688L42.9373 140.631L42.9455 140.628L42.604 139.688ZM36.8724 140.437C36.8365 140.638 36.7993 140.844 36.7608 141.053L38.728 141.415C38.767 141.202 38.8048 140.993 38.8413 140.788L36.8724 140.437ZM37.7808 142.233C39.6002 142.167 41.3991 141.825 43.1158 141.219L42.4497 139.333C40.9239 139.872 39.3251 140.176 37.708 140.235L37.7808 142.233ZM43.1104 141.22C43.3176 141.149 43.5307 141.071 43.7438 140.986L43.003 139.128C42.8252 139.199 42.6418 139.266 42.455 139.331L43.1104 141.22ZM43.7406 140.987C44.349 140.747 44.9443 140.475 45.5239 140.172L44.5973 138.399C44.0801 138.67 43.5489 138.913 43.0061 139.127L43.7406 140.987ZM45.5232 140.172C47.9719 138.894 50.0961 137.074 51.7338 134.85L50.1233 133.664C48.6663 135.642 46.7764 137.262 44.5979 138.399L45.5232 140.172ZM51.3329 133.342C51.1399 133.257 50.9509 133.173 50.7605 133.088L49.9475 134.915C50.1374 135 50.3286 135.085 50.5242 135.171L51.3329 133.342ZM49.5538 133.402C48.1618 135.259 46.3708 136.78 44.3129 137.853L45.2376 139.627C47.5609 138.415 49.5827 136.698 51.1542 134.601L49.5538 133.402ZM44.3119 137.854C43.8284 138.107 43.3323 138.335 42.8256 138.537L43.5663 140.394C44.1365 140.167 44.6947 139.911 45.2387 139.626L44.3119 137.854ZM42.8241 138.537C42.6429 138.61 42.4587 138.677 42.2626 138.749L42.9455 140.628C43.1403 140.558 43.3527 140.48 43.5678 140.394L42.8241 138.537ZM42.2708 138.746C40.8354 139.253 39.3329 139.545 37.8121 139.614L37.9016 141.612C39.6193 141.535 41.3161 141.204 42.9372 140.631L42.2708 138.746Z" fill="#FF5031" mask="url(#path-26-inside-5_554_2825)"/>
<path d="M46.9877 149.608L47.0412 149.711L46.9877 149.608Z" fill="white" stroke="#FF5031"/>
<mask id="path-29-inside-6_554_2825" fill="white">
<path d="M37.0684 157.575C37.1085 157.811 37.1472 158.044 37.1955 158.276C41.2983 159.764 45.8135 159.638 49.8268 157.923C50.0248 157.836 50.2214 157.747 50.4179 157.652C50.6254 157.557 50.8313 157.453 51.0358 157.346C54.2482 155.661 56.848 153.006 58.4657 149.759C60.0834 146.513 60.6369 142.839 60.0475 139.259C59.8147 139.1 59.5778 138.946 59.3395 138.789C60.046 142.316 59.591 145.977 58.0427 149.224C56.4943 152.471 53.9359 155.129 50.7505 156.8C50.546 156.907 50.3386 157.009 50.1298 157.108C49.9347 157.199 49.7381 157.288 49.5386 157.372C45.5664 159.058 41.0934 159.131 37.0684 157.575Z"/>
</mask>
<path d="M37.0684 157.575C37.1085 157.811 37.1472 158.044 37.1955 158.276C41.2983 159.764 45.8135 159.638 49.8268 157.923C50.0248 157.836 50.2214 157.747 50.4179 157.652C50.6254 157.557 50.8313 157.453 51.0358 157.346C54.2482 155.661 56.848 153.006 58.4657 149.759C60.0834 146.513 60.6369 142.839 60.0475 139.259C59.8147 139.1 59.5778 138.946 59.3395 138.789C60.046 142.316 59.591 145.977 58.0427 149.224C56.4943 152.471 53.9359 155.129 50.7505 156.8C50.546 156.907 50.3386 157.009 50.1298 157.108C49.9347 157.199 49.7381 157.288 49.5386 157.372C45.5664 159.058 41.0934 159.131 37.0684 157.575Z" fill="white"/>
<path d="M37.1955 158.276L36.2165 158.48L36.3303 159.026L36.8544 159.216L37.1955 158.276ZM49.8268 157.923L50.2199 158.842L50.226 158.839L49.8268 157.923ZM50.4179 157.652L50.0028 156.742L49.9911 156.747L49.9795 156.753L50.4179 157.652ZM51.0358 157.346L51.4994 158.232L51.5003 158.231L51.0358 157.346ZM60.0475 139.259L61.0342 139.097L60.9648 138.676L60.6127 138.434L60.0475 139.259ZM59.3395 138.789L59.889 137.954L57.8889 136.638L58.359 138.986L59.3395 138.789ZM50.7505 156.8L51.2141 157.686L51.2151 157.686L50.7505 156.8ZM50.1298 157.108L50.555 158.013L50.5576 158.012L50.1298 157.108ZM49.5386 157.372L49.1524 156.449L49.1478 156.451L49.5386 157.372ZM36.0825 157.742C36.1214 157.971 36.1636 158.226 36.2165 158.48L38.1744 158.072C38.1308 157.862 38.0956 157.65 38.0542 157.407L36.0825 157.742ZM36.8544 159.216C41.1957 160.791 45.9733 160.657 50.2199 158.842L49.4338 157.003C45.6537 158.619 41.4009 158.738 37.5365 157.336L36.8544 159.216ZM50.226 158.839C50.4325 158.75 50.6429 158.654 50.8563 158.55L49.9795 156.753C49.7999 156.84 49.6172 156.923 49.4276 157.006L50.226 158.839ZM50.8329 158.561C51.0641 158.456 51.2882 158.342 51.4994 158.232L50.5722 156.46C50.3744 156.563 50.1866 156.658 50.0028 156.742L50.8329 158.561ZM51.5003 158.231C54.8989 156.449 57.6493 153.64 59.3608 150.205L57.5707 149.313C56.0467 152.372 53.5976 154.873 50.5713 156.46L51.5003 158.231ZM59.3608 150.205C61.0722 146.77 61.6578 142.884 61.0342 139.097L59.0608 139.422C59.616 142.794 59.0946 146.255 57.5707 149.313L59.3608 150.205ZM60.6127 138.434C60.3697 138.268 60.1211 138.106 59.889 137.954L58.7901 139.625C59.0346 139.785 59.2596 139.932 59.4822 140.084L60.6127 138.434ZM58.359 138.986C59.0231 142.301 58.5954 145.742 57.14 148.794L58.9453 149.655C60.5866 146.213 61.069 142.332 60.3201 138.593L58.359 138.986ZM57.14 148.794C55.6847 151.846 53.28 154.344 50.2859 155.915L51.2151 157.686C54.5918 155.914 57.3039 153.097 58.9453 149.655L57.14 148.794ZM50.2869 155.914C50.0979 156.013 49.9032 156.109 49.702 156.204L50.5576 158.012C50.774 157.909 50.9941 157.801 51.2141 157.686L50.2869 155.914ZM49.7047 156.203C49.5177 156.29 49.3348 156.373 49.1525 156.449L49.9248 158.294C50.1414 158.204 50.3516 158.108 50.555 158.013L49.7047 156.203ZM49.1478 156.451C45.415 158.036 41.2115 158.105 37.429 156.642L36.7077 158.507C40.9752 160.158 45.7178 160.081 49.9295 158.292L49.1478 156.451Z" fill="#FF5031" mask="url(#path-29-inside-6_554_2825)"/>
<path d="M88.0863 149.68C88.1554 149.444 88.2163 149.243 88.2663 149.081C88.2976 149.091 88.3305 149.102 88.3647 149.113C88.7294 149.229 89.2555 149.403 89.8983 149.633C91.1847 150.093 92.9346 150.775 94.7904 151.662C96.6477 152.549 98.6005 153.637 100.298 154.907C102 156.18 103.417 157.614 104.239 159.185C105.932 162.421 106.076 165.03 105.281 167.11C104.48 169.205 102.689 170.863 100.312 172.107C97.9356 173.35 95.552 173.875 93.3749 173.339C91.2126 172.806 89.1511 171.2 87.458 167.964C86.8196 166.743 86.4537 165.274 86.2871 163.68L91.7592 165.148L92.1507 164.239L86.1912 160.574C86.2845 157.673 86.8226 154.733 87.3488 152.487C87.6201 151.328 87.8872 150.359 88.0863 149.68Z" stroke="#FF5031"/>
<path d="M93.0664 164.313L93.2379 164.641C95.2516 168.442 97.4503 171.08 99.8072 172.514C99.8412 172.536 99.876 172.555 99.91 172.576L100.006 172.416L100.097 172.261C97.5144 170.732 95.347 167.795 93.5898 164.479C93.5321 164.373 93.4736 164.265 93.4183 164.156C92.6869 162.746 92.0281 161.277 91.4425 159.822C91.3962 159.709 91.3506 159.595 91.3051 159.48C90.542 157.555 89.9059 155.667 89.396 154.005C89.3594 153.888 89.3244 153.769 89.2903 153.653C88.4388 150.835 87.9664 148.719 87.8652 148.249C87.8518 148.192 87.8455 148.16 87.8438 148.153L87.6666 148.19L87.6641 148.189L87.4854 148.227C87.4871 148.234 87.5079 148.341 87.5525 148.537C87.7151 149.27 88.1768 151.252 88.9379 153.785C88.9728 153.9 89.0078 154.018 89.0443 154.135C89.4567 155.485 89.9496 156.976 90.5252 158.511C90.6691 158.897 90.8154 159.275 90.964 159.646C91.0079 159.762 91.0534 159.876 91.0997 159.989C91.7326 161.562 92.3881 163.003 93.0664 164.313Z" fill="#FF5031"/>
<path d="M86.1119 154.335C86.0903 154.456 86.068 154.58 86.0449 154.705C87.0679 154.668 88.0792 154.476 89.0444 154.135C89.1616 154.094 89.2797 154.051 89.396 154.005C89.7387 153.869 90.074 153.716 90.4004 153.545C91.7778 152.827 92.9726 151.803 93.8938 150.552C93.7781 150.5 93.6649 150.45 93.5517 150.4C92.6696 151.577 91.5347 152.541 90.2306 153.221C89.9248 153.381 89.611 153.525 89.2904 153.653C89.1724 153.7 89.0544 153.743 88.938 153.785C88.0282 154.107 87.0759 154.292 86.1119 154.335Z" fill="#FF5031"/>
<path d="M85.4105 160.448C85.407 160.572 85.4052 160.695 85.4033 160.818C87.3425 161.094 89.3201 160.806 91.0998 159.988C91.2144 159.934 91.3281 159.879 91.4426 159.821C91.4889 159.799 91.5343 159.775 91.5798 159.752C93.0228 158.997 94.2651 157.909 95.2039 156.578C96.1426 155.247 96.7508 153.712 96.9781 152.099C96.8638 152.035 96.7488 151.973 96.6338 151.911C96.4335 153.492 95.8538 155.002 94.9442 156.31C94.0346 157.619 92.8221 158.688 91.4099 159.427C91.3759 159.445 91.3401 159.463 91.3052 159.48C91.1932 159.538 91.0795 159.594 90.9641 159.646C89.2304 160.448 87.3003 160.727 85.4105 160.448Z" fill="#FF5031"/>
<path d="M85.6426 164.434C85.6665 164.574 85.6895 164.713 85.7183 164.851C88.1608 165.737 90.8488 165.662 93.238 164.641C93.3559 164.589 93.4729 164.536 93.5899 164.479C93.7134 164.423 93.836 164.361 93.9578 164.297C95.8702 163.294 97.4179 161.714 98.381 159.781C99.3441 157.848 99.6735 155.661 99.3226 153.53C99.184 153.435 99.043 153.343 98.9012 153.25C99.3218 155.35 99.0509 157.529 98.1291 159.462C97.2073 161.395 95.6843 162.978 93.7879 163.973C93.6662 164.036 93.5427 164.097 93.4184 164.156C93.3022 164.21 93.1852 164.263 93.0665 164.313C90.7017 165.317 88.0388 165.36 85.6426 164.434Z" fill="#FF5031"/>
<path d="M208.779 107.083L208.752 107.081C203.852 106.272 198.409 106.272 192.112 107.082H192.109C191.952 107.084 191.796 107.055 191.65 106.996C191.505 106.937 191.372 106.85 191.26 106.74C191.148 106.63 191.059 106.499 190.998 106.354C190.937 106.209 190.905 106.054 190.904 105.897V100.193C190.905 99.8788 191.03 99.5771 191.252 99.3547C191.475 99.1322 191.776 99.007 192.091 99.0067C197.637 98.2836 203.253 98.284 208.798 99.0079H208.801C209.112 99.0125 209.408 99.1396 209.627 99.3615C209.845 99.5834 209.966 99.8823 209.965 100.193V105.897C209.965 106.211 209.84 106.513 209.617 106.735C209.395 106.958 209.093 107.083 208.779 107.083Z" fill="white"/>
<path d="M208.779 107.083L208.752 107.081C203.852 106.272 198.409 106.272 192.112 107.082H192.109C191.952 107.084 191.796 107.055 191.65 106.996C191.505 106.937 191.372 106.85 191.26 106.74C191.148 106.63 191.059 106.499 190.998 106.354C190.937 106.209 190.905 106.054 190.904 105.897V100.193C190.905 99.8788 191.03 99.5771 191.252 99.3547C191.475 99.1322 191.776 99.007 192.091 99.0067C197.637 98.2836 203.253 98.284 208.798 99.0079H208.801C209.112 99.0125 209.408 99.1396 209.627 99.3615C209.845 99.5834 209.966 99.8823 209.965 100.193V105.897C209.965 106.211 209.84 106.513 209.617 106.735C209.395 106.958 209.093 107.083 208.779 107.083ZM200.223 98.7885C197.511 98.7836 194.801 98.9639 192.113 99.3282C191.998 99.3263 191.884 99.3473 191.777 99.3899C191.67 99.4325 191.572 99.4958 191.49 99.5763C191.408 99.6567 191.342 99.7527 191.297 99.8586C191.252 99.9645 191.228 100.078 191.227 100.193V105.897C191.228 106.126 191.319 106.345 191.481 106.507C191.643 106.669 191.862 106.76 192.091 106.76C198.394 105.949 203.863 105.948 208.791 106.76C209.018 106.757 209.234 106.664 209.394 106.503C209.553 106.341 209.642 106.123 209.642 105.897V100.193C209.642 99.9644 209.551 99.7449 209.389 99.583C209.227 99.4211 209.008 99.33 208.779 99.3297C205.941 98.9738 203.083 98.793 200.223 98.7885Z" fill="#47A138"/>
<path d="M200.435 105.034C201.684 105.034 202.696 104.022 202.696 102.773C202.696 101.524 201.684 100.512 200.435 100.512C199.186 100.512 198.173 101.524 198.173 102.773C198.173 104.022 199.186 105.034 200.435 105.034Z" fill="#47A138"/>
<path d="M194.62 101.591H192.681C192.553 101.591 192.429 101.54 192.339 101.449C192.248 101.358 192.197 101.235 192.197 101.107V100.461C192.197 100.332 192.248 100.209 192.339 100.118C192.429 100.027 192.553 99.9761 192.681 99.976H194.62C194.748 99.9761 194.871 100.027 194.962 100.118C195.053 100.209 195.104 100.332 195.104 100.461V101.107C195.104 101.235 195.053 101.358 194.962 101.449C194.871 101.54 194.748 101.591 194.62 101.591Z" fill="#47A138"/>
<path d="M208.189 106.114H206.25C206.122 106.114 205.999 106.063 205.908 105.972C205.817 105.881 205.766 105.758 205.766 105.63V104.984C205.766 104.855 205.817 104.732 205.908 104.641C205.999 104.55 206.122 104.499 206.25 104.499H208.189C208.317 104.499 208.44 104.55 208.531 104.641C208.622 104.732 208.673 104.855 208.673 104.984V105.63C208.673 105.758 208.622 105.881 208.531 105.972C208.44 106.063 208.317 106.114 208.189 106.114Z" fill="#47A138"/>
<path d="M206.021 104.725L205.997 104.712C201.798 102.062 196.783 99.945 190.666 98.242L190.664 98.241C190.518 98.1816 190.386 98.094 190.275 97.9833C190.163 97.8725 190.075 97.7408 190.014 97.5958C189.954 97.4507 189.923 97.2951 189.923 97.138C189.923 96.9809 189.954 96.8253 190.015 96.6803L192.233 91.426C192.355 91.1363 192.588 90.907 192.88 90.7886C193.171 90.6701 193.498 90.6721 193.788 90.7942C199.178 92.2846 204.352 94.4691 209.179 97.2927L209.181 97.2935C209.466 97.4187 209.69 97.6512 209.805 97.9404C209.919 98.2296 209.915 98.5524 209.793 98.8386L207.575 104.093C207.453 104.383 207.22 104.612 206.929 104.73C206.637 104.849 206.311 104.847 206.021 104.725Z" fill="white"/>
<path d="M206.021 104.725L205.997 104.712C201.798 102.062 196.783 99.945 190.666 98.242L190.664 98.241C190.518 98.1816 190.386 98.094 190.275 97.9833C190.163 97.8725 190.075 97.7408 190.014 97.5958C189.954 97.4507 189.923 97.2951 189.923 97.138C189.923 96.9809 189.954 96.8253 190.015 96.6803L192.233 91.426C192.355 91.1363 192.588 90.907 192.88 90.7886C193.171 90.6701 193.498 90.6721 193.788 90.7942C199.178 92.2846 204.352 94.4691 209.179 97.2927L209.181 97.2935C209.466 97.4187 209.69 97.6512 209.805 97.9404C209.919 98.2296 209.915 98.5524 209.793 98.8386L207.575 104.093C207.453 104.383 207.22 104.612 206.929 104.73C206.637 104.849 206.311 104.847 206.021 104.725ZM201.364 93.7556C198.867 92.6963 196.301 91.8086 193.683 91.0989C193.578 91.0524 193.464 91.0273 193.349 91.025C193.234 91.0226 193.119 91.0431 193.012 91.0852C192.905 91.1272 192.807 91.1901 192.725 91.2702C192.642 91.3502 192.576 91.4459 192.53 91.5516L190.312 96.8059C190.224 97.017 190.222 97.2546 190.308 97.4668C190.395 97.6789 190.561 97.8482 190.772 97.9375C196.895 99.6407 201.934 101.768 206.158 104.432C206.368 104.517 206.604 104.516 206.813 104.429C207.022 104.342 207.189 104.176 207.278 103.967L209.496 98.713C209.585 98.5019 209.586 98.2642 209.5 98.0521C209.414 97.84 209.247 97.6707 209.036 97.5814C206.56 96.1498 203.998 94.8721 201.364 93.7556V93.7556Z" fill="#47A138"/>
<path d="M200.01 99.7701C201.259 99.7701 202.271 98.7576 202.271 97.5086C202.271 96.2596 201.259 95.2471 200.01 95.2471C198.761 95.2471 197.749 96.2596 197.749 97.5086C197.749 98.7576 198.761 99.7701 200.01 99.7701Z" fill="#47A138"/>
<path d="M195.112 94.1586L193.326 93.4048C193.208 93.3547 193.114 93.2597 193.066 93.1407C193.018 93.0216 193.018 92.8883 193.068 92.7698L193.32 92.1746C193.37 92.0563 193.465 91.9626 193.584 91.9143C193.703 91.8659 193.836 91.8667 193.954 91.9166L195.74 92.6704C195.859 92.7205 195.952 92.8155 196.001 92.9345C196.049 93.0535 196.048 93.1869 195.998 93.3053L195.747 93.9006C195.697 94.0189 195.602 94.1125 195.483 94.1609C195.364 94.2093 195.231 94.2084 195.112 94.1586Z" fill="#47A138"/>
<path d="M205.854 103.602L204.068 102.848C203.95 102.798 203.856 102.703 203.808 102.584C203.759 102.465 203.76 102.332 203.81 102.214L204.061 101.618C204.111 101.5 204.206 101.406 204.325 101.358C204.444 101.31 204.578 101.31 204.696 101.36L206.482 102.114C206.6 102.164 206.694 102.259 206.742 102.378C206.791 102.497 206.79 102.631 206.74 102.749L206.489 103.344C206.439 103.463 206.344 103.556 206.225 103.605C206.106 103.653 205.972 103.652 205.854 103.602Z" fill="#47A138"/>
<path d="M216.069 87.2121L210.808 96.4331L210.631 96.7421L210.865 97.0099C211.13 97.3125 211.325 97.6693 211.436 98.0554C211.548 98.4414 211.574 98.8472 211.512 99.2442C211.449 99.6412 211.301 100.02 211.077 100.353C210.86 100.676 210.577 100.948 210.247 101.153L210.211 101.176C209.633 101.529 208.945 101.657 208.279 101.537C207.612 101.417 207.013 101.057 206.594 100.525C206.176 99.9924 205.967 99.325 206.007 98.649C206.048 97.973 206.335 97.3354 206.814 96.857L206.875 96.7961L206.912 96.7184L211.301 87.5201L216.069 87.2121Z" stroke="black"/>
<path d="M254.013 155.185L254.012 169.462H250.994L249.233 155.184L254.013 155.185Z" stroke="black"/>
<path d="M255.522 173.801L242.751 173.8V173.639C242.751 172.321 243.275 171.056 244.207 170.124C245.139 169.192 246.404 168.668 247.722 168.668H247.722L255.523 168.668L255.522 173.801Z" fill="#2F2E41"/>
<path d="M226.875 155.185L226.875 169.462H223.856L222.095 155.184L226.875 155.185Z" stroke="black"/>
<path d="M228.384 173.801L215.613 173.8V173.639C215.613 172.321 216.137 171.056 217.069 170.124C218.002 169.192 219.266 168.668 220.584 168.668H220.585L228.385 168.668L228.384 173.801Z" fill="#2F2E41"/>
<path d="M217.19 87.0842C217.19 87.0842 216.1 102.598 218.246 110.412C220.392 118.225 220.775 165.476 220.775 165.476H227.967L234.2 101.158L248.571 165.703L255.422 165.232L251.665 89.174L217.19 87.0842Z" fill="#2F2E41"/>
<path d="M248.693 34.7866L243.195 30.7745L233.981 32.7806L231.488 38.7064L227.19 40.837C225.777 41.5376 224.556 42.5707 223.63 43.8477C222.704 45.1247 222.103 46.6074 221.877 48.1682L215.738 90.5629L251.665 89.1741L256.014 39.2461C256.06 38.7245 256 38.1992 255.839 37.7011C255.677 37.203 255.418 36.7423 255.076 36.3463C254.733 35.9503 254.315 35.627 253.845 35.3955C253.376 35.1641 252.864 35.0291 252.342 34.9988L248.693 34.7866Z" fill="#CBCBCB"/>
<path d="M224.917 44.1484L221.599 48.6216L207.146 92.7027L213.92 95.4152L224.768 74.8742L224.917 44.1484Z" fill="#CBCBCB"/>
<path d="M247.293 17.1858C247.293 22.9828 242.594 27.6822 236.797 27.6822C231 27.6822 226.3 22.9828 226.3 17.1858C226.3 11.3888 231 6.68944 236.797 6.68944C242.594 6.68944 247.293 11.3888 247.293 17.1858Z" stroke="black"/>
<path d="M236.945 28.6798C241.377 28.6798 244.97 25.0871 244.97 20.6554C244.97 16.2236 241.377 12.631 236.945 12.631C232.514 12.631 228.921 16.2236 228.921 20.6554C228.921 25.0871 232.514 28.6798 236.945 28.6798Z" fill="#389429"/>
<path d="M241.646 6.24118C241.646 9.41195 239.076 11.9824 235.905 11.9824C232.734 11.9824 230.164 9.41195 230.164 6.24118C230.164 3.07041 232.734 0.5 235.905 0.5C239.076 0.5 241.646 3.07041 241.646 6.24118Z" stroke="black"/>
<path d="M245.167 14.2699C245.135 15.8724 244.702 17.4052 243.96 18.5501C243.217 19.6949 242.221 20.364 241.178 20.4184C241.243 20.4244 241.306 20.436 241.371 20.4373C242.448 20.4586 243.493 19.8216 244.277 18.6664C245.062 17.5112 245.521 15.9325 245.553 14.2776C245.586 12.6227 245.19 11.027 244.452 9.84177C243.714 8.65649 242.695 7.97864 241.618 7.95735C241.553 7.95605 241.489 7.96511 241.425 7.96852C242.464 8.06416 243.433 8.77212 244.13 9.94546C244.827 11.1188 245.198 12.6674 245.167 14.2699Z" fill="black"/>
<path opacity="0.1" d="M251.376 46.6871L249.137 69.0063L241.23 84.5896L251.376 46.6871Z" fill="black"/>
<path d="M14.6996 115.38H12.7612V116.995H14.6996V115.38Z" fill="#F0F0F0"/>
<path d="M198.051 116.995H194.231V115.38H198.051V116.995ZM190.411 116.995H186.591V115.38H190.411V116.995ZM182.772 116.995H178.952V115.38H182.772V116.995ZM175.132 116.995H171.312V115.38H175.132V116.995ZM167.492 116.995H163.673V115.38H167.492V116.995ZM159.853 116.995H156.033V115.38H159.853L159.853 116.995ZM152.213 116.995H148.393V115.38H152.213V116.995ZM144.573 116.995H140.754V115.38H144.573V116.995ZM136.934 116.995H133.114V115.38H136.934V116.995ZM129.294 116.995H125.474V115.38H129.294L129.294 116.995ZM121.655 116.995H117.835V115.38H121.655L121.655 116.995ZM114.015 116.995H110.195V115.38H114.015L114.015 116.995ZM106.375 116.995H102.555V115.38H106.375L106.375 116.995ZM98.7355 116.995H94.9159V115.38H98.7356L98.7355 116.995ZM91.0959 116.995H87.2763V115.38H91.096L91.0959 116.995ZM83.4563 116.995H79.6365V115.38H83.4564L83.4563 116.995ZM75.8167 116.995H71.9969V115.38H75.8168L75.8167 116.995ZM68.1771 116.995H64.3573V115.38H68.1772L68.1771 116.995ZM60.5374 116.995H56.7177V115.38H60.5374L60.5374 116.995ZM52.8977 116.995H49.0781V115.38H52.8978L52.8977 116.995ZM45.2581 116.995H41.4385V115.38H45.2582L45.2581 116.995ZM37.6185 116.995H33.7988V115.38H37.6186L37.6185 116.995ZM29.9789 116.995H26.1592V115.38H29.979L29.9789 116.995ZM22.3393 116.995H18.5195V115.38H22.3394L22.3393 116.995Z" fill="#F8F8F8"/>
<path d="M14.6996 74.3501H12.7612V75.9654H14.6996V74.3501Z" fill="#F0F0F0"/>
<path d="M197.938 76.117H194.118V74.5016H197.938V76.117ZM190.299 76.117H186.479V74.5016H190.299V76.117ZM182.659 76.117H178.839V74.5016H182.659V76.117ZM175.02 76.117H171.199V74.5016H175.02V76.117ZM167.38 76.117H163.56V74.5016H167.38V76.117ZM159.74 76.117H155.92V74.5016H159.74L159.74 76.117ZM152.101 76.117H148.281V74.5016H152.101V76.117ZM144.461 76.117H140.641V74.5016H144.461V76.117ZM136.821 76.117H133.001V74.5016H136.821V76.117ZM129.182 76.117H125.362V74.5016H129.182L129.182 76.117ZM121.542 76.117H117.722V74.5016H121.542L121.542 76.117ZM113.902 76.117H110.083V74.5016H113.902L113.902 76.117ZM106.263 76.117H102.443V74.5016H106.263L106.263 76.117ZM98.623 76.117H94.8033V74.5016H98.6231L98.623 76.117ZM90.9834 76.117H87.1637V74.5016H90.9835L90.9834 76.117ZM83.3438 76.117H79.524V74.5016H83.3438L83.3438 76.117ZM75.7042 76.117H71.8844V74.5016H75.7042L75.7042 76.117ZM68.0646 76.117H64.2448V74.5016H68.0646L68.0646 76.117ZM60.4248 76.117H56.6052V74.5016H60.4249L60.4248 76.117ZM52.7852 76.117H48.9656V74.5016H52.7853L52.7852 76.117ZM45.1456 76.117H41.3259V74.5016H45.1457L45.1456 76.117ZM37.506 76.117H33.6862V74.5016H37.5061L37.506 76.117ZM29.8664 76.117H26.0466V74.5016H29.8665L29.8664 76.117ZM22.2268 76.117H18.407V74.5016H22.2269L22.2268 76.117Z" fill="#F8F8F8"/>
<path d="M197.938 32.6123H194.118V30.9969H197.938V32.6123ZM190.299 32.6123H186.479V30.9969H190.299V32.6123ZM182.659 32.6123H178.839V30.9969H182.659V32.6123ZM175.02 32.6123H171.199V30.9969H175.02V32.6123ZM167.38 32.6123H163.56V30.9969H167.38V32.6123ZM159.74 32.6123H155.92V30.9969H159.74L159.74 32.6123ZM152.101 32.6123H148.281V30.9969H152.101V32.6123ZM144.461 32.6123H140.641V30.9969H144.461V32.6123ZM136.821 32.6123H133.001V30.9969H136.821V32.6123ZM129.182 32.6123H125.362V30.9969H129.182L129.182 32.6123ZM121.542 32.6123H117.722V30.9969H121.542L121.542 32.6123ZM113.902 32.6123H110.083V30.9969H113.902L113.902 32.6123ZM106.263 32.6123H102.443V30.9969H106.263L106.263 32.6123ZM98.623 32.6123H94.8033V30.9969H98.6231L98.623 32.6123ZM90.9834 32.6123H87.1637V30.9969H90.9834L90.9834 32.6123ZM83.3438 32.6123H79.524V30.9969H83.3438L83.3438 32.6123ZM75.7042 32.6123H71.8844V30.9969H75.7042L75.7042 32.6123ZM68.0646 32.6123H64.2448V30.9969H68.0646L68.0646 32.6123ZM60.4248 32.6123H56.6052V30.9969H60.4249L60.4248 32.6123ZM52.7852 32.6123H48.9656V30.9969H52.7853L52.7852 32.6123ZM45.1456 32.6123H41.3259V30.9969H45.1457L45.1456 32.6123ZM37.506 32.6123H33.6862V30.9969H37.5061L37.506 32.6123ZM29.8664 32.6123H26.0466V30.9969H29.8665L29.8664 32.6123ZM22.2268 32.6123H18.407V30.9969H22.2269L22.2268 32.6123Z" fill="#F8F8F8"/>
<path d="M75.9212 115.864H60.0908V174.017H75.9212V115.864Z" fill="#3F3D56"/>
<path d="M78.8287 115.864H62.9983V174.017H78.8287V115.864Z" fill="#47A138"/>
<path d="M113.397 74.8348H97.5669V174.017H113.397V74.8348Z" fill="#3F3D56"/>
<path d="M116.305 74.8348H100.474V174.017H116.305V74.8348Z" fill="#47A138"/>
<path d="M150.873 33.805H135.043V174.017H150.873V33.805Z" fill="#3F3D56"/>
<path d="M153.781 33.805H137.95V174.017H153.781V33.805Z" fill="#47A138"/>
<path d="M12.9227 79.0347C15.0638 79.0347 16.7996 77.2989 16.7996 75.1578C16.7996 73.0167 15.0638 71.281 12.9227 71.281C10.7816 71.281 9.0459 73.0167 9.0459 75.1578C9.0459 77.2989 10.7816 79.0347 12.9227 79.0347Z" fill="#F8F8F8"/>
<path d="M12.9227 35.53C15.0638 35.53 16.7996 33.7943 16.7996 31.6532C16.7996 29.512 15.0638 27.7763 12.9227 27.7763C10.7816 27.7763 9.0459 29.512 9.0459 31.6532C9.0459 33.7943 10.7816 35.53 12.9227 35.53Z" fill="#F8F8F8"/>
<path d="M12.9227 120.064C15.0638 120.064 16.7996 118.329 16.7996 116.188C16.7996 114.047 15.0638 112.311 12.9227 112.311C10.7816 112.311 9.0459 114.047 9.0459 116.188C9.0459 118.329 10.7816 120.064 12.9227 120.064Z" fill="#F8F8F8"/>
<path d="M286.885 173.655H0V174.379H286.885V173.655Z" fill="#47A138"/>
<path d="M242.055 99.976L242.028 99.9738C237.128 99.1647 231.685 99.165 225.388 99.9747H225.385C225.228 99.9766 225.072 99.9473 224.926 99.8887C224.781 99.83 224.648 99.743 224.536 99.6328C224.424 99.5226 224.335 99.3914 224.274 99.2466C224.213 99.1018 224.181 98.9464 224.18 98.7892V93.086C224.181 92.7714 224.306 92.4697 224.528 92.2472C224.751 92.0248 225.053 91.8996 225.367 91.8993C230.913 91.1762 236.529 91.1766 242.075 91.9005H242.077C242.388 91.9051 242.685 92.0322 242.903 92.2541C243.121 92.476 243.242 92.7749 243.242 93.086V98.7892C243.241 99.1039 243.116 99.4055 242.894 99.628C242.671 99.8505 242.369 99.9756 242.055 99.976Z" fill="white"/>
<path d="M242.055 99.976L242.028 99.9738C237.128 99.1647 231.685 99.165 225.388 99.9747H225.385C225.228 99.9766 225.072 99.9473 224.926 99.8887C224.781 99.83 224.648 99.743 224.536 99.6328C224.424 99.5226 224.335 99.3914 224.274 99.2466C224.213 99.1018 224.181 98.9464 224.18 98.7892V93.086C224.181 92.7714 224.306 92.4697 224.528 92.2472C224.751 92.0248 225.053 91.8996 225.367 91.8993C230.913 91.1762 236.529 91.1766 242.075 91.9005H242.077C242.388 91.9051 242.685 92.0322 242.903 92.2541C243.121 92.476 243.242 92.7749 243.242 93.086V98.7892C243.241 99.1039 243.116 99.4055 242.894 99.628C242.671 99.8505 242.369 99.9756 242.055 99.976ZM233.499 91.6811C230.787 91.6762 228.077 91.8565 225.389 92.2207C225.274 92.2189 225.16 92.2399 225.053 92.2825C224.946 92.3251 224.848 92.3884 224.766 92.4689C224.684 92.5493 224.618 92.6453 224.573 92.7512C224.528 92.8571 224.504 92.9709 224.503 93.086V98.7892C224.504 99.0182 224.595 99.2378 224.757 99.3997C224.919 99.5616 225.138 99.6527 225.367 99.6529C231.67 98.8411 237.14 98.841 242.067 99.6528C242.294 99.6492 242.51 99.5567 242.67 99.3951C242.829 99.2336 242.918 99.016 242.918 98.7892V93.086C242.918 92.857 242.827 92.6375 242.665 92.4756C242.503 92.3137 242.284 92.2226 242.055 92.2223C239.217 91.8664 236.359 91.6856 233.499 91.6811Z" fill="#47A138"/>
<path d="M233.711 97.9268C234.96 97.9268 235.972 96.9143 235.972 95.6653C235.972 94.4163 234.96 93.4038 233.711 93.4038C232.462 93.4038 231.449 94.4163 231.449 95.6653C231.449 96.9143 232.462 97.9268 233.711 97.9268Z" fill="#47A138"/>
<path d="M227.896 94.4838H225.957C225.829 94.4837 225.706 94.4326 225.615 94.3418C225.524 94.2509 225.473 94.1277 225.473 93.9992V93.3531C225.473 93.2246 225.524 93.1014 225.615 93.0106C225.706 92.9197 225.829 92.8686 225.957 92.8685H227.896C228.024 92.8686 228.147 92.9197 228.238 93.0106C228.329 93.1014 228.38 93.2246 228.38 93.3531V93.9992C228.38 94.1277 228.329 94.2509 228.238 94.3418C228.147 94.4326 228.024 94.4837 227.896 94.4838Z" fill="#47A138"/>
<path d="M241.465 99.0068H239.526C239.398 99.0067 239.274 98.9556 239.184 98.8647C239.093 98.7739 239.042 98.6507 239.042 98.5222V97.8761C239.042 97.7476 239.093 97.6244 239.184 97.5336C239.274 97.4427 239.398 97.3916 239.526 97.3915H241.465C241.593 97.3916 241.716 97.4427 241.807 97.5336C241.898 97.6244 241.949 97.7476 241.949 97.8761V98.5222C241.949 98.6507 241.898 98.7739 241.807 98.8647C241.716 98.9556 241.593 99.0067 241.465 99.0068Z" fill="#47A138"/>
<path d="M238.922 92.4683L238.922 92.4683L238.922 92.4651C238.893 92.0642 238.954 91.6621 239.098 91.287C239.242 90.9119 239.466 90.5729 239.756 90.294C240.045 90.0151 240.392 89.803 240.772 89.6727C241.152 89.5423 241.556 89.4969 241.956 89.5397L242.309 89.5775L242.461 89.2557L246.988 79.6531L249.474 83.7326L244.465 92.6082L244.422 92.6832L244.408 92.7681C244.291 93.4352 243.934 94.0365 243.404 94.4579C242.874 94.8794 242.208 95.0918 241.532 95.0549C240.855 95.0179 240.216 94.7342 239.735 94.2575C239.254 93.7808 238.965 93.1442 238.922 92.4683Z" stroke="black"/>
<path d="M251.807 37.8764L253.834 35.2325C253.834 35.2325 258.774 34.2264 259.613 41.0113L259.085 71.1747L248.26 88.2123L241.23 86.4173L250.421 66.1778L251.807 37.8764Z" fill="#CBCBCB"/>
<path d="M238.379 21.1255C238.526 21.0613 238.66 20.9587 238.772 20.8244C238.846 20.7287 238.902 20.6139 238.937 20.4879C238.972 20.3619 238.985 20.2279 238.974 20.0952C238.968 20.0006 238.944 19.9091 238.905 19.8279C238.866 19.7466 238.812 19.6778 238.748 19.6268C238.583 19.4991 238.364 19.5039 238.143 19.6323L238.117 17.3929L237.938 17.3961L237.968 20.0288L238.104 19.9165C238.263 19.7864 238.491 19.6921 238.654 19.8184C238.695 19.8518 238.729 19.8965 238.753 19.949C238.778 20.0015 238.792 20.0603 238.796 20.121C238.803 20.2198 238.794 20.3195 238.768 20.4134C238.742 20.5072 238.7 20.5929 238.645 20.6647C238.45 20.9067 238.162 20.9877 237.833 21.0619L237.865 21.2833C238.04 21.25 238.212 21.1972 238.379 21.1255Z" fill="black"/>
<path d="M241.495 17.8936L239.78 18.1532L239.828 18.4715L241.543 18.2119L241.495 17.8936Z" fill="black"/>
<path d="M232.731 17.8936L234.445 18.1532L234.397 18.4715L232.683 18.2119L232.731 17.8936Z" fill="black"/>
</svg>
