<svg width="309" height="247" viewBox="0 0 309 247" fill="none" xmlns="http://www.w3.org/2000/svg">
<path d="M44.9654 207.801L45.9495 207.714L46.401 201.011C51.5295 203.506 56.5912 206.626 60.6442 210.462L60.6442 210.462C67.5113 216.961 72.6706 223.973 75.4697 230.041C76.8698 233.076 77.6686 235.852 77.8101 238.195C77.9517 240.536 77.4356 242.398 76.2655 243.683C75.0971 244.967 73.3207 245.627 71.0264 245.657C68.7295 245.688 65.9588 245.083 62.8872 243.886C56.7471 241.492 49.506 236.769 42.6389 230.269C41.5032 229.187 40.4246 228.044 39.4076 226.846L47.116 225.712L47.1314 224.726L36.2768 222.781C31.6254 216.163 28.1786 208.546 25.8882 202.554C24.7343 199.535 23.8759 196.934 23.3062 195.088C23.0228 194.17 22.8109 193.44 22.6698 192.938C23.0436 193.017 23.5427 193.126 24.1505 193.267C25.5411 193.59 27.5002 194.079 29.8303 194.752L30.8615 198.899L31.8456 198.812L32.0745 195.423C35.7402 196.553 39.3454 197.879 42.8751 199.395L44.9654 207.801Z" stroke="#47A138"/>
<path d="M65.1615 198.204L66.0485 198.638L69.8565 193.232C73.0049 197.992 75.7762 203.246 77.3117 208.579C79.9121 217.609 80.7788 226.186 80.0945 232.743C79.7522 236.023 79.0245 238.771 77.9526 240.814C76.8815 242.855 75.4903 244.152 73.8282 244.627C72.1658 245.102 70.2954 244.737 68.3005 243.572C66.3042 242.406 64.2244 240.459 62.1888 237.859C58.1193 232.66 54.2906 224.931 51.6902 215.901C51.2655 214.407 50.9202 212.892 50.6557 211.363L57.8696 214.402L58.3916 213.563L50.0299 206.299C49.4002 198.318 50.3168 190.121 51.4004 183.89C51.9464 180.751 52.5338 178.117 52.9845 176.268C53.2071 175.355 53.3962 174.634 53.5305 174.139C53.8125 174.399 54.1879 174.751 54.6415 175.187C55.6751 176.179 57.1139 177.605 58.7785 179.379L57.5525 183.4L58.4395 183.834L60.3646 181.101C62.9477 183.955 65.3788 186.942 67.6479 190.049L65.1615 198.204Z" stroke="#47A138"/>
<path d="M193.538 58.4961H192.187V21.445C192.187 18.6288 191.632 15.8402 190.555 13.2384C189.478 10.6365 187.9 8.27245 185.91 6.2811C183.92 4.28974 181.557 2.71011 178.957 1.6324C176.357 0.55469 173.57 0 170.755 0H92.3049C86.621 0 81.1698 2.25938 77.1506 6.2811C73.1315 10.3028 70.8735 15.7574 70.8735 21.445V224.714C70.8735 227.53 71.4279 230.318 72.5049 232.92C73.5819 235.522 75.1606 237.886 77.1506 239.878C79.1407 241.869 81.5033 243.448 84.1035 244.526C86.7037 245.604 89.4905 246.159 92.3049 246.159H170.755C176.439 246.159 181.89 243.899 185.909 239.877C189.929 235.856 192.186 230.401 192.186 224.714V84.8698H193.538L193.538 58.4961Z" fill="#E6E6E6"/>
<path d="M171.7 5.80176H161.439C161.911 6.95491 162.091 8.20604 161.964 9.44492C161.836 10.6838 161.405 11.8724 160.708 12.906C160.011 13.9396 159.07 14.7865 157.967 15.3721C156.864 15.9576 155.634 16.2639 154.384 16.2638H109.35C108.101 16.2638 106.871 15.9574 105.768 15.3718C104.665 14.7862 103.724 13.9393 103.027 12.9057C102.33 11.8722 101.899 10.6836 101.772 9.44476C101.644 8.20593 101.824 6.95486 102.296 5.80176H92.7123C88.459 5.80176 84.38 7.48582 81.3724 10.4835C78.3649 13.4811 76.6753 17.5468 76.6753 21.7861V224.373C76.6753 228.612 78.3649 232.678 81.3724 235.675C84.38 238.673 88.459 240.357 92.7123 240.357H171.7C175.953 240.357 180.032 238.673 183.04 235.675C186.047 232.678 187.737 228.612 187.737 224.373V21.7858C187.737 17.5465 186.047 13.4809 183.039 10.4834C180.032 7.48577 175.953 5.80176 171.7 5.80176Z" fill="white"/>
<path d="M121.707 86.1976C121.706 84.7425 122.064 83.313 122.743 82.053C123.422 80.7929 124.399 79.7468 125.576 79.02C124.4 78.2923 123.066 77.9091 121.708 77.9089C120.35 77.9088 119.016 78.2916 117.84 79.019C116.664 79.7464 115.688 80.7927 115.009 82.0528C114.33 83.3128 113.972 84.7421 113.972 86.1971C113.972 87.6521 114.33 89.0814 115.009 90.3415C115.688 91.6015 116.664 92.6478 117.84 93.3752C119.016 94.1026 120.35 94.4854 121.708 94.4853C123.066 94.4851 124.4 94.1019 125.576 93.3742C124.399 92.6475 123.422 91.6016 122.743 90.3418C122.064 89.0819 121.706 87.6526 121.707 86.1976Z" fill="#CCCCCC"/>
<path d="M132.205 86.1976C132.205 84.7425 132.587 83.313 133.315 82.0529C134.043 80.7929 135.09 79.7468 136.35 79.02C135.09 78.2923 133.661 77.9091 132.206 77.9089C130.752 77.9088 129.322 78.2916 128.062 79.019C126.802 79.7464 125.756 80.7927 125.028 82.0528C124.301 83.3128 123.918 84.7421 123.918 86.1971C123.918 87.6521 124.301 89.0814 125.028 90.3415C125.756 91.6015 126.802 92.6478 128.062 93.3752C129.322 94.1026 130.752 94.4854 132.206 94.4853C133.661 94.4851 135.09 94.1019 136.35 93.3742C135.09 92.6475 134.043 91.6016 133.315 90.3418C132.588 89.0819 132.205 87.6526 132.205 86.1976Z" fill="#CCCCCC"/>
<path d="M142.152 94.4853C146.729 94.4853 150.44 90.7745 150.44 86.1971C150.44 81.6197 146.729 77.9089 142.152 77.9089C137.574 77.9089 133.864 81.6197 133.864 86.1971C133.864 90.7745 137.574 94.4853 142.152 94.4853Z" fill="#47A138"/>
<path d="M155.376 111.89H108.206C107.757 111.89 107.327 111.711 107.009 111.394C106.692 111.076 106.513 110.646 106.512 110.197V63.0263C106.513 62.5773 106.692 62.1467 107.009 61.8292C107.327 61.5117 107.757 61.333 108.206 61.3325H155.376C155.826 61.333 156.256 61.5117 156.574 61.8292C156.891 62.1467 157.07 62.5773 157.07 63.0263V110.197C157.07 110.646 156.891 111.076 156.574 111.394C156.256 111.711 155.826 111.89 155.376 111.89ZM108.206 62.0104C107.937 62.0107 107.679 62.1179 107.488 62.3084C107.297 62.4989 107.19 62.7572 107.19 63.0267V110.197C107.19 110.466 107.297 110.725 107.488 110.915C107.679 111.106 107.937 111.213 108.206 111.213H155.376C155.646 111.213 155.904 111.106 156.095 110.915C156.285 110.725 156.392 110.466 156.393 110.197V63.0267C156.392 62.7572 156.285 62.4989 156.095 62.3084C155.904 62.1179 155.646 62.0107 155.376 62.0104H108.206Z" fill="#CCCCCC"/>
<path d="M176.774 145.328H88.9199V146.156H176.774V145.328Z" fill="#004D61"/>
<path d="M176.774 171.021H88.9199V171.85H176.774V171.021Z" fill="#004D61"/>
<path d="M91.6089 140.147C93.2322 140.147 94.5482 138.831 94.5482 137.208C94.5482 135.584 93.2322 134.269 91.6089 134.269C89.9856 134.269 88.6697 135.584 88.6697 137.208C88.6697 138.831 89.9856 140.147 91.6089 140.147Z" fill="#47A138"/>
<path d="M91.6089 165.272C93.2322 165.272 94.5482 163.956 94.5482 162.333C94.5482 160.71 93.2322 159.394 91.6089 159.394C89.9856 159.394 88.6697 160.71 88.6697 162.333C88.6697 163.956 89.9856 165.272 91.6089 165.272Z" fill="#47A138"/>
<path d="M174.701 202.283H145.288C144.78 202.283 144.293 202.081 143.933 201.721C143.574 201.362 143.372 200.875 143.372 200.367V190.058C143.372 189.55 143.574 189.063 143.933 188.703C144.293 188.344 144.78 188.142 145.288 188.141H174.701C175.209 188.142 175.696 188.344 176.055 188.703C176.415 189.063 176.617 189.55 176.617 190.058V200.367C176.617 200.875 176.415 201.362 176.055 201.721C175.696 202.081 175.209 202.283 174.701 202.283Z" fill="#47A138"/>
<path d="M101.196 140.147C102.82 140.147 104.136 138.831 104.136 137.208C104.136 135.584 102.82 134.269 101.196 134.269C99.573 134.269 98.2571 135.584 98.2571 137.208C98.2571 138.831 99.573 140.147 101.196 140.147Z" fill="#47A138"/>
<path d="M101.196 165.272C102.82 165.272 104.136 163.956 104.136 162.333C104.136 160.71 102.82 159.394 101.196 159.394C99.573 159.394 98.2571 160.71 98.2571 162.333C98.2571 163.956 99.573 165.272 101.196 165.272Z" fill="#47A138"/>
<path d="M110.783 140.147C112.407 140.147 113.723 138.831 113.723 137.208C113.723 135.584 112.407 134.269 110.783 134.269C109.16 134.269 107.844 135.584 107.844 137.208C107.844 138.831 109.16 140.147 110.783 140.147Z" fill="#47A138"/>
<path d="M110.783 165.272C112.407 165.272 113.723 163.956 113.723 162.333C113.723 160.71 112.407 159.394 110.783 159.394C109.16 159.394 107.844 160.71 107.844 162.333C107.844 163.956 109.16 165.272 110.783 165.272Z" fill="#47A138"/>
<path d="M307.379 246.868H1.62101C0.966474 246.868 0.436279 246.636 0.436279 246.349C0.436279 246.063 0.966474 245.83 1.62101 245.83H307.379C308.033 245.83 308.564 246.063 308.564 246.349C308.564 246.636 308.033 246.868 307.379 246.868Z" fill="#3F3D56"/>
<path d="M193.861 98.7182L194.085 98.868L194.334 98.7622L220.186 87.7562L220.447 87.6449L220.485 87.3634L221.349 81.0005L230.722 80.9434L230.147 95.6307L196.383 104.537L196.113 104.609L196.032 104.876C195.967 105.091 195.888 105.302 195.797 105.508C195.346 106.467 194.621 107.271 193.713 107.821C192.803 108.372 191.751 108.642 190.688 108.598C189.624 108.554 188.598 108.198 187.737 107.574C186.876 106.95 186.22 106.087 185.849 105.092C185.479 104.098 185.412 103.016 185.656 101.984C185.9 100.951 186.444 100.013 187.221 99.2881C187.998 98.5629 188.972 98.0827 190.022 97.9079C191.071 97.7332 192.148 97.8715 193.119 98.3052C193.377 98.4229 193.625 98.5611 193.861 98.7182Z" stroke="black"/>
<path d="M234.439 239.896H228.492L225.332 213.158L234.44 213.159L234.439 239.896Z" stroke="black"/>
<path d="M223.173 237.622H236.79V246.868H214.599C214.599 244.416 215.502 242.064 217.11 240.33C218.718 238.596 220.899 237.622 223.173 237.622Z" fill="#2F2E41"/>
<path d="M259.58 211.356L262.132 237.408L256.094 238.006L250.345 212.27L259.58 211.356Z" stroke="black"/>
<path d="M250.616 237.146L264.259 235.803L265.105 244.393L242.872 246.582C242.761 245.454 242.873 244.315 243.202 243.231C243.531 242.146 244.071 241.137 244.79 240.261C245.509 239.384 246.394 238.658 247.393 238.124C248.393 237.59 249.488 237.257 250.616 237.146Z" fill="#2F2E41"/>
<path d="M237.252 50.853C245.167 50.853 251.583 44.4367 251.583 36.5217C251.583 28.6068 245.167 22.1904 237.252 22.1904C229.337 22.1904 222.92 28.6068 222.92 36.5217C222.92 44.4367 229.337 50.853 237.252 50.853Z" fill="#FF5031"/>
<path d="M226.576 234.849C225.969 234.85 225.381 234.635 224.915 234.24C224.45 233.846 224.137 233.298 224.032 232.693C220.375 212.154 208.422 144.997 208.136 143.136C208.13 143.094 208.127 143.05 208.127 143.007V138C208.127 137.817 208.183 137.639 208.288 137.491L209.867 135.254C209.942 135.146 210.041 135.057 210.155 134.994C210.269 134.931 210.396 134.895 210.526 134.889C219.529 134.462 249.012 133.211 250.437 135.011C251.867 136.821 251.362 142.303 251.246 143.384L251.252 143.497L264.497 229.205C264.601 229.888 264.435 230.586 264.034 231.146C263.633 231.706 263.031 232.084 262.357 232.199L254.083 233.578C253.467 233.678 252.836 233.551 252.305 233.22C251.773 232.889 251.377 232.376 251.187 231.774C248.628 223.502 240.048 195.672 237.075 184.904C237.056 184.835 237.014 184.776 236.955 184.738C236.897 184.699 236.826 184.683 236.757 184.693C236.688 184.703 236.625 184.738 236.579 184.791C236.534 184.845 236.509 184.914 236.51 184.984C236.658 195.25 237.017 221.44 237.141 230.485L237.155 231.46C237.16 232.119 236.921 232.757 236.484 233.246C236.048 233.736 235.445 234.042 234.796 234.104L226.818 234.838C226.737 234.845 226.656 234.849 226.576 234.849Z" fill="#2F2E41"/>
<path d="M228.174 56.8002C225.648 58.2768 224.137 60.9903 223.269 63.7515C221.663 68.8635 220.697 74.1488 220.391 79.4907L219.474 95.4854L208.127 137.888C217.962 146.072 223.635 144.212 236.874 137.518C250.113 130.825 251.626 139.75 251.626 139.75L254.273 103.67L258.055 64.2448C257.206 63.2394 256.245 62.3308 255.19 61.5361C251.694 58.8626 247.627 57.0044 243.294 56.1014C238.962 55.1984 234.477 55.2742 230.179 56.3231L228.174 56.8002Z" fill="#47A138"/>
<path d="M225.229 107.252L225.464 107.387L225.706 107.264L251.339 94.2335L251.594 94.1037L251.612 93.8179L252.011 87.1963L261.63 86.5227L262.165 101.725L228.264 113.112L227.998 113.201L227.936 113.474C227.678 114.595 227.091 115.609 226.254 116.381C225.417 117.153 224.369 117.648 223.25 117.799C222.131 117.951 220.993 117.753 219.987 117.232L219.757 117.675L219.987 117.232C218.981 116.71 218.154 115.889 217.616 114.876C217.079 113.864 216.857 112.708 216.982 111.564C217.107 110.42 217.571 109.342 218.313 108.474L217.933 108.149L218.313 108.474C219.054 107.606 220.038 106.989 221.131 106.703C222.224 106.418 223.376 106.477 224.435 106.873C224.709 106.978 224.975 107.105 225.229 107.252Z" stroke="black"/>
<path d="M257.334 64.5598C263.45 66.7771 264.527 90.7978 264.527 90.7978C257.332 86.7329 248.698 93.3846 248.698 93.3846C248.698 93.3846 246.899 87.1025 244.74 78.9729C244.088 76.6862 244.01 74.2673 244.514 71.9414C245.017 69.6154 246.085 67.458 247.618 65.6701C247.618 65.6701 251.218 62.3413 257.334 64.5598Z" fill="#47A138"/>
<path d="M223.95 30.1771C223.773 30.4528 223.62 30.7334 223.488 31.0084C223.389 29.2009 223.399 27.3884 223.518 25.5805C223.678 24.1984 224.786 22.7065 226.987 21.2665C229.177 19.8335 232.364 18.5116 236.477 17.448C240.392 16.4358 243.373 18.1073 245.418 20.0907C246.441 21.0831 247.216 22.1438 247.737 22.9588C247.997 23.3655 248.192 23.7089 248.321 23.9492C248.386 24.0693 248.434 24.1634 248.466 24.2266C248.481 24.2582 248.493 24.282 248.5 24.2975L248.509 24.3143L248.51 24.3179L248.51 24.3181L248.51 24.3184L248.51 24.3184L248.584 24.4772L248.742 24.5551C250.007 25.1823 250.865 26.4973 251.386 28.2105C251.905 29.9166 252.065 31.943 251.99 33.8607C251.916 35.7788 251.609 37.5494 251.221 38.7362C251.024 39.3403 250.821 39.7419 250.652 39.9432C250.63 39.9698 250.611 39.9895 250.596 40.004C249.458 39.1476 248.162 39.5629 247.291 40.051C246.982 40.2241 246.704 40.4178 246.471 40.5975L245.137 28.6938L245.081 28.1937L244.581 28.253L244.581 28.2531L244.58 28.2532L244.575 28.2537L244.557 28.2559L244.482 28.2643C244.416 28.2716 244.318 28.2823 244.19 28.2953C243.936 28.3215 243.564 28.3574 243.101 28.3961C242.173 28.4735 240.875 28.562 239.4 28.6063C236.437 28.6951 232.8 28.6034 229.986 27.9073C228.449 27.5269 227.192 27.6739 226.18 28.1472C225.176 28.6169 224.458 29.3866 223.95 30.1771Z" stroke="black"/>
<path d="M232.65 37.7211C232.532 37.6449 232.424 37.5229 232.333 37.3634C232.273 37.2497 232.227 37.1131 232.199 36.9635C232.171 36.8138 232.161 36.6545 232.169 36.4968C232.174 36.3844 232.194 36.2757 232.225 36.1791C232.257 36.0826 232.3 36.0008 232.352 35.9402C232.486 35.7885 232.663 35.7942 232.841 35.9468L232.862 33.2856L233.007 33.2894L232.983 36.4179L232.872 36.2844C232.744 36.1299 232.56 36.0179 232.428 36.1679C232.395 36.2076 232.368 36.2607 232.348 36.3231C232.328 36.3854 232.316 36.4554 232.314 36.5274C232.308 36.6449 232.315 36.7634 232.336 36.8749C232.357 36.9864 232.391 37.0883 232.435 37.1736C232.593 37.4611 232.825 37.5574 233.091 37.6456L233.065 37.9086C232.924 37.8691 232.785 37.8064 232.65 37.7211Z" fill="black"/>
<path d="M228.989 34.1739L231.095 34.4929L231.036 34.884L228.93 34.565L228.989 34.1739Z" fill="black"/>
<path d="M239.754 34.1739L237.648 34.4929L237.707 34.884L239.814 34.565L239.754 34.1739Z" fill="black"/>
</svg>
