<svg width="295" height="217" viewBox="0 0 295 217" fill="none" xmlns="http://www.w3.org/2000/svg">
<path d="M286.568 191.017H62.1291C60.1332 191.017 58.219 190.224 56.8077 188.812C55.3964 187.401 54.6035 185.487 54.6035 183.491C135.963 174.036 215.793 174.036 294.094 183.491C294.094 185.487 293.301 187.401 291.89 188.812C290.479 190.224 288.564 191.017 286.568 191.017Z" fill="#2F2E41"/>
<path d="M294.094 183.934L54.6035 183.491L82.3596 136.788L82.4924 136.567V33.6392C82.4923 32.3899 82.7383 31.1528 83.2164 29.9985C83.6944 28.8443 84.3952 27.7955 85.2786 26.9121C86.162 26.0287 87.2107 25.328 88.365 24.8499C89.5192 24.3719 90.7563 24.1259 92.0056 24.126H255.364C256.613 24.1259 257.85 24.3719 259.005 24.8499C260.159 25.328 261.208 26.0287 262.091 26.9121C262.974 27.7955 263.675 28.8443 264.153 29.9985C264.631 31.1528 264.877 32.3899 264.877 33.6392V137.275L294.094 183.934Z" fill="#3F3D56"/>
<path d="M91.789 30.7661C90.9674 30.767 90.1797 31.0938 89.5988 31.6747C89.0179 32.2557 88.6911 33.0433 88.6902 33.8649V127.713C88.6911 128.535 89.0179 129.322 89.5988 129.903C90.1798 130.484 90.9674 130.811 91.789 130.812H256.909C257.731 130.811 258.518 130.484 259.099 129.903C259.68 129.322 260.007 128.535 260.008 127.713V33.8649C260.007 33.0433 259.68 32.2557 259.099 31.6748C258.518 31.0939 257.731 30.7671 256.909 30.7661H91.789Z" fill="white"/>
<path d="M92.4805 143.207C92.2267 143.207 91.9782 143.28 91.7644 143.417C91.5507 143.554 91.3805 143.75 91.274 143.98L82.7215 162.573C82.6283 162.775 82.5876 162.997 82.603 163.22C82.6184 163.442 82.6895 163.657 82.8096 163.844C82.9298 164.032 83.0951 164.186 83.2905 164.293C83.4859 164.4 83.7051 164.456 83.9278 164.456H263.783C264.009 164.456 264.232 164.398 264.429 164.288C264.627 164.177 264.793 164.018 264.912 163.826C265.031 163.633 265.099 163.413 265.109 163.187C265.119 162.961 265.072 162.736 264.97 162.534L255.674 143.941C255.564 143.72 255.395 143.534 255.185 143.404C254.975 143.275 254.733 143.206 254.486 143.207H92.4805Z" fill="#2F2E41"/>
<path d="M173.685 29.217C174.785 29.217 175.677 28.3252 175.677 27.225C175.677 26.1248 174.785 25.2329 173.685 25.2329C172.585 25.2329 171.693 26.1248 171.693 27.225C171.693 28.3252 172.585 29.217 173.685 29.217Z" fill="white"/>
<path d="M156.006 167.998C155.715 167.998 155.431 168.094 155.199 168.272C154.967 168.449 154.801 168.698 154.724 168.98L152.579 176.948C152.526 177.145 152.519 177.352 152.558 177.552C152.598 177.752 152.683 177.94 152.807 178.102C152.931 178.263 153.091 178.395 153.273 178.485C153.456 178.575 153.657 178.622 153.861 178.622H194.66C194.872 178.622 195.081 178.571 195.269 178.474C195.457 178.377 195.619 178.237 195.742 178.064C195.865 177.892 195.944 177.692 195.975 177.483C196.005 177.273 195.984 177.059 195.915 176.859L193.157 168.891C193.066 168.63 192.897 168.404 192.672 168.244C192.447 168.084 192.178 167.998 191.902 167.998H156.006Z" fill="#2F2E41"/>
<path d="M264.877 135.018V136.788H82.3596L82.497 136.567V135.018H264.877Z" fill="#2F2E41"/>
<path d="M259.786 61.9754C276.9 61.9754 290.774 48.1017 290.774 30.9877C290.774 13.8737 276.9 0 259.786 0C242.672 0 228.799 13.8737 228.799 30.9877C228.799 48.1017 242.672 61.9754 259.786 61.9754Z" fill="#47A138"/>
<path d="M272.624 44.4894H246.948C246.479 44.4889 246.029 44.3022 245.697 43.9702C245.365 43.6383 245.178 43.1882 245.178 42.7187V27.2248C245.178 26.7554 245.365 26.3053 245.697 25.9733C246.029 25.6413 246.479 25.4546 246.948 25.4541H272.624C273.093 25.4546 273.544 25.6413 273.876 25.9733C274.207 26.3053 274.394 26.7554 274.395 27.2248V42.7187C274.394 43.1881 274.208 43.6383 273.876 43.9702C273.544 44.3022 273.093 44.4889 272.624 44.4894ZM246.948 27.2248V42.7187H272.625L272.624 27.2248L246.948 27.2248Z" fill="white"/>
<path d="M267.754 27.2251H251.818V20.1422C251.818 15.012 255.169 11.2886 259.786 11.2886C264.403 11.2886 267.754 15.012 267.754 20.1422L267.754 27.2251ZM253.588 25.4544H265.983V20.1422C265.983 15.9719 263.435 13.0593 259.786 13.0593C256.137 13.0593 253.588 15.972 253.588 20.1422L253.588 25.4544Z" fill="white"/>
<path d="M259.786 36.2997C260.764 36.2997 261.557 35.507 261.557 34.529C261.557 33.5511 260.764 32.7583 259.786 32.7583C258.808 32.7583 258.015 33.5511 258.015 34.529C258.015 35.507 258.808 36.2997 259.786 36.2997Z" fill="white"/>
<path d="M238.154 98.9797H110.543C109.917 98.979 109.316 98.7298 108.873 98.2868C108.43 97.8438 108.181 97.2431 108.18 96.6166V64.9618C108.181 64.3353 108.43 63.7346 108.873 63.2916C109.316 62.8486 109.917 62.5994 110.543 62.5986H238.154C238.781 62.5994 239.381 62.8486 239.824 63.2916C240.267 63.7346 240.516 64.3353 240.517 64.9618V96.6166C240.516 97.2431 240.267 97.8438 239.824 98.2868C239.381 98.7298 238.781 98.979 238.154 98.9797ZM110.543 63.5439C110.167 63.5443 109.807 63.6938 109.541 63.9597C109.275 64.2255 109.126 64.5859 109.125 64.9618V96.6166C109.126 96.9925 109.275 97.3529 109.541 97.6187C109.807 97.8846 110.167 98.0341 110.543 98.0345H238.154C238.53 98.0341 238.89 97.8846 239.156 97.6187C239.422 97.3529 239.572 96.9925 239.572 96.6166V64.9618C239.572 64.5859 239.422 64.2255 239.156 63.9596C238.89 63.6938 238.53 63.5443 238.154 63.5439L110.543 63.5439Z" fill="#E6E6E6"/>
<path d="M130.371 89.2008C135.688 89.2008 139.998 84.8909 139.998 79.5745C139.998 74.2581 135.688 69.9482 130.371 69.9482C125.055 69.9482 120.745 74.2581 120.745 79.5745C120.745 84.8909 125.055 89.2008 130.371 89.2008Z" fill="#E6E6E6"/>
<path d="M152.604 73.1572C152.393 73.1569 152.184 73.1981 151.989 73.2786C151.794 73.3591 151.617 73.4772 151.468 73.6262C151.318 73.7753 151.2 73.9522 151.119 74.1471C151.038 74.3419 150.997 74.5507 150.997 74.7616C150.997 74.9725 151.038 75.1813 151.119 75.3762C151.2 75.571 151.318 75.748 151.468 75.897C151.617 76.046 151.794 76.1641 151.989 76.2446C152.184 76.3251 152.393 76.3663 152.604 76.366H228.239C228.664 76.366 229.072 76.1969 229.373 75.8961C229.674 75.5952 229.843 75.1871 229.843 74.7616C229.843 74.3361 229.674 73.928 229.373 73.6271C229.072 73.3263 228.664 73.1572 228.239 73.1572H152.604Z" fill="#E6E6E6"/>
<path d="M152.604 82.7832C152.178 82.7832 151.77 82.9522 151.469 83.2531C151.168 83.554 150.999 83.9621 150.999 84.3876C150.999 84.8131 151.168 85.2212 151.469 85.522C151.77 85.8229 152.178 85.992 152.604 85.992H185.15C185.575 85.992 185.983 85.8229 186.284 85.522C186.585 85.2212 186.754 84.8131 186.754 84.3876C186.754 83.9621 186.585 83.554 186.284 83.2531C185.983 82.9522 185.575 82.7832 185.15 82.7832H152.604Z" fill="#E6E6E6"/>
<path d="M80.1923 78.7967L80.3512 78.7112L80.4189 78.5439L82.8861 72.4485C83.1224 71.8647 83.5065 71.3524 84.0006 70.9618C84.4947 70.5713 85.0819 70.3159 85.7045 70.2208C86.3271 70.1257 86.9638 70.1942 87.5519 70.4195C88.1401 70.6448 88.6596 71.0191 89.0594 71.5058C89.6443 72.2179 89.9366 73.1257 89.8773 74.0453C89.8179 74.9648 89.4112 75.8275 88.7395 76.4584L81.752 83.0225L58.9326 95.1543L58.6694 85.9432C66.2544 84.6397 73.4876 82.4031 80.1923 78.7967Z" stroke="black"/>
<path d="M24.4062 155.842C24.2341 155.211 24.1975 154.551 24.299 153.905C24.4004 153.258 24.6375 152.641 24.9946 152.093L30.1766 144.14C31.4023 142.259 33.283 140.9 35.4538 140.327C37.6246 139.755 39.9308 140.009 41.9249 141.04C39.747 144.747 40.0506 148 42.677 150.826C38.5998 152.816 34.8316 155.385 31.489 158.453C30.8788 158.869 30.178 159.133 29.445 159.223C28.712 159.314 27.9681 159.228 27.2751 158.972C26.5821 158.717 25.9602 158.3 25.4612 157.755C24.9622 157.211 24.6004 156.555 24.4062 155.842Z" fill="#2F2E41"/>
<path d="M83.1199 145.444C82.3358 146.751 81.2289 147.834 79.9055 148.59C78.582 149.346 77.0865 149.749 75.5624 149.761L41.1366 150.021L39.6436 141.362L54.8724 136.883L42.0324 127.029L56.0668 110.605L81.5577 134.364C83.0476 135.753 84.0157 137.611 84.3 139.627C84.5844 141.644 84.1678 143.697 83.1199 145.444Z" fill="#8B8B8B"/>
<path d="M35.7618 204.666H27.6994C20.4606 155.047 13.0922 105.289 34.866 86.7173L60.546 90.8978L57.2614 112.696L42.9283 129.119L35.7618 204.666Z" fill="#8B8B8B"/>
<path d="M42.8487 215.906C42.2176 216.078 41.5572 216.115 40.9109 216.014C40.2646 215.912 39.6471 215.675 39.0989 215.318L30.3449 214.141C28.4638 212.916 27.105 211.035 26.5322 208.864C25.9593 206.694 26.2133 204.387 27.2447 202.393C30.9519 204.571 34.204 204.267 37.03 201.641C39.0268 205.672 42.3168 205.427 45.4589 208.823C45.8749 209.434 46.1391 210.134 46.2295 210.867C46.3198 211.6 46.2338 212.344 45.9784 213.037C45.723 213.73 45.3058 214.352 44.7614 214.851C44.217 215.35 43.5613 215.712 42.8487 215.906Z" fill="#2F2E41"/>
<path d="M58.976 99.8886C48.1073 107.295 40.4278 100.142 34.5675 89.1061C35.3818 82.3532 34.0633 74.2719 31.6212 65.4909C30.5351 61.6179 30.9406 57.4785 32.7576 53.8898C34.5745 50.3012 37.6709 47.5241 41.4354 46.1069L54.2754 51.4818C65.1781 60.3688 67.324 69.9951 63.2336 80.148L58.976 99.8886Z" fill="#3F3D56"/>
<path d="M3.92524 64.0721L24.9657 49.6374L27.1374 60.7676L15.5228 66.8653L14.7292 67.2819L15.5006 67.7383L36.5563 80.1938L39.4428 87.3139C39.6142 87.7366 39.6977 88.1899 39.6882 88.6459C39.6787 89.102 39.5764 89.5514 39.3876 89.9666C39.1988 90.3819 38.9273 90.7543 38.5899 91.0613C38.2524 91.3682 37.8559 91.6032 37.4247 91.7519C36.9345 91.9209 36.4118 91.9742 35.8975 91.9075C35.3833 91.8408 34.8915 91.656 34.4606 91.3675C34.0297 91.079 33.6714 90.6947 33.4139 90.2446C33.1563 89.7945 33.0064 89.2909 32.976 88.7733L32.6777 83.7019L32.6577 83.3629L32.3352 83.2565L5.38901 74.3642C4.55317 74.0884 3.79106 73.626 3.1604 73.012C2.52973 72.398 2.04704 71.6485 1.74891 70.8204L1.27878 70.9897L1.74891 70.8204C1.31434 69.6133 1.29222 68.2961 1.68601 67.0751C2.07981 65.854 2.86729 64.7979 3.92524 64.0721L3.64238 63.6598L3.92524 64.0721Z" stroke="black"/>
<path d="M39.6437 62.2313C34.6622 60.0482 30.1325 62.4197 24.4149 64.3216L23.519 48.4955C29.1964 45.4695 34.6093 44.6537 39.6437 47.0024L39.6437 62.2313Z" fill="#3F3D56"/>
<path d="M58.1119 43.5533H31.0713C30.6467 43.5529 30.2401 43.3847 29.9406 43.0866C29.6412 42.7887 29.4732 42.3852 29.4727 41.9648V30.3637C29.4727 26.3741 31.065 22.5473 33.9001 19.7255C36.7352 16.9036 40.5811 15.3179 44.5916 15.3179C48.6022 15.3179 52.448 16.9036 55.2831 19.7255C58.1182 22.5473 59.7105 26.3741 59.7105 30.3637V41.9645C59.7101 42.385 59.5421 42.7886 59.2426 43.0866C58.9431 43.3847 58.5365 43.5529 58.1119 43.5533Z" stroke="black"/>
<path d="M57.8917 37.9955C60.9298 32.4379 58.8873 25.4698 53.3297 22.4318C47.7722 19.3937 40.804 21.4362 37.766 26.9938C34.728 32.5513 36.7704 39.5195 42.328 42.5575C47.8856 45.5955 54.8537 43.5531 57.8917 37.9955Z" fill="#47A138"/>
<path d="M52.7555 38.1708C53.0116 38.0585 53.2456 37.8789 53.4417 37.6439C53.5714 37.4764 53.6704 37.2754 53.7316 37.0549C53.7928 36.8345 53.8147 36.5999 53.796 36.3677C53.7851 36.2022 53.7438 36.0421 53.6753 35.8999C53.6068 35.7577 53.513 35.6372 53.4013 35.548C53.1112 35.3245 52.728 35.333 52.3411 35.5577L52.2965 31.6387L51.9823 31.6443L52.0347 36.2515L52.2739 36.0549C52.5513 35.8274 52.9499 35.6624 53.2366 35.8834C53.3075 35.9419 53.3667 36.0201 53.4096 36.1119C53.4524 36.2037 53.4778 36.3067 53.4838 36.4128C53.497 36.5858 53.4803 36.7604 53.4348 36.9246C53.3894 37.0888 53.3162 37.2388 53.2204 37.3644C52.8797 37.7878 52.3755 37.9297 51.8 38.0595L51.8557 38.4469C52.1617 38.3887 52.4628 38.2963 52.7555 38.1708Z" fill="black"/>
<path d="M58.2066 32.5143L55.2061 32.9688L55.2904 33.5258L58.291 33.0714L58.2066 32.5143Z" fill="black"/>
<path d="M42.8701 32.5143L45.8706 32.9688L45.7862 33.5258L42.7857 33.0714L42.8701 32.5143Z" fill="black"/>
<path d="M46.7668 29.0571L46.0424 31.1383H44.3378L44.0367 26.8135L43.0657 26.6839L41.5152 31.1383H37.4853C37.5545 28.0274 38.7893 25.0615 40.935 22.86C43.1407 20.597 46.1284 19.3264 49.2421 19.3228H51.5547C54.6684 19.3264 57.6561 20.597 59.8618 22.86C62.0076 25.0615 63.2424 28.0274 63.3116 31.1383H47.8737L47.7378 29.1867L46.7668 29.0571Z" stroke="black"/>
</svg>
